<svg xmlns="http://www.w3.org/2000/svg" xmlns:xlink="http://www.w3.org/1999/xlink" width="255.38" height="82.57" viewBox="0 0 255.38 82.57">
  <defs>
    <clipPath id="clip-path" transform="translate(0 0)">
      <rect width="255.39" height="82.57" fill="none"/>
    </clipPath>
  </defs>
  <g id="Layer_2" data-name="Layer 2">
    <g id="Layer_1-2" data-name="Layer 1">
      <g clip-path="url(#clip-path)">
        <path d="M24.67,27.21c4.07-1.48,4.48-4.76,4.48-8.08,0-4-1-9.22-9.65-9.22H.71V47.4H20.1c6.5,0,10.07-3.86,10.07-10.88,0-3.65-.7-7.78-5.5-9.31m-5.17-2H5.93V14.35H19.5c3.15,0,4.32,1.42,4.32,5.25,0,1.38,0,5.57-4.32,5.57M5.93,29.55H19.82c4,0,4.86,3.76,4.86,6.92C24.68,42.29,22,43,20,43H5.93Z" transform="translate(0 0)" fill="#410099"/>
      </g>
      <g clip-path="url(#clip-path)">
        <path d="M47.5,19.15c-9.07,0-12.94,4.29-12.94,14.36,0,10.25,4,14.62,13.43,14.62a38.33,38.33,0,0,0,9.17-1.48l.62-.18L56.62,42l-.68.25a27.85,27.85,0,0,1-7.62,1.36c-5.71,0-8.34-1.32-8.53-9H59.31V34c0-10.8-3.2-14.82-11.81-14.82m-7.61,11.1c.49-5.11,2.3-6.61,7.61-6.61,4.42,0,6,1,6.45,6.61Z" transform="translate(0 0)" fill="#410099"/>
      </g>
      <g clip-path="url(#clip-path)">
        <path d="M68.54,40V8.06l-4.84.63V40.2a9.44,9.44,0,0,0,3.62,8.12l.42.38,3.74-3-.55-.52C69,43.33,68.54,42.31,68.54,40" transform="translate(0 0)" fill="#410099"/>
      </g>
      <g clip-path="url(#clip-path)">
        <path d="M88.8,19.15c-9.07,0-12.94,4.29-12.94,14.36,0,10.25,4,14.62,13.43,14.62a38.33,38.33,0,0,0,9.17-1.48l.62-.18L97.92,42l-.68.25a27.85,27.85,0,0,1-7.62,1.36c-5.7,0-8.34-1.32-8.53-9h19.53V34c0-10.8-3.2-14.82-11.82-14.82m-7.61,11.1c.49-5.11,2.3-6.61,7.61-6.61,4.42,0,6,1,6.45,6.61Z" transform="translate(0 0)" fill="#410099"/>
      </g>
      <g clip-path="url(#clip-path)">
        <path d="M118.05,19.15c-9.39,0-13,4-13,14.36,0,10.52,3.66,14.62,13,14.62s13.11-4.1,13.11-14.62c0-10.34-3.67-14.36-13.11-14.36m7.89,14.46c0,8.68-2.32,10.08-7.89,10.08s-7.83-1.4-7.83-10.08,1.86-10,7.83-10,7.89,1.39,7.89,10" transform="translate(0 0)" fill="#410099"/>
      </g>
      <g clip-path="url(#clip-path)">
        <path d="M155.46,20.71a13.71,13.71,0,0,0-6.86-1.56c-9.39,0-13,4.08-13,14.57s3.66,14.41,13,14.41A32.42,32.42,0,0,0,159.91,46l.4-.17V8.68l-4.85-.5ZM140.77,33.66c0-7.36,1.18-10,7.83-10,4,0,6.86,1.27,6.86,3v16a24.41,24.41,0,0,1-6.86.91c-6,0-7.83-1.37-7.83-9.93" transform="translate(0 0)" fill="#410099"/>
      </g>
      <g clip-path="url(#clip-path)">
        <path d="M176.12,19.15a35.42,35.42,0,0,0-9.26,1.32l-.68.18,1.47,4.5.66-.27a21.61,21.61,0,0,1,7.59-1.19c5.87,0,7.28,1.08,7.4,6.31a36,36,0,0,0-7.13-.68c-6,0-11.48,1.13-11.48,9.33,0,7.89,4.5,9.48,11.75,9.48A31.86,31.86,0,0,0,187.75,46l.4-.17V30c0-6.69-2-10.83-12-10.83m7.19,15.05v8.53a22.55,22.55,0,0,1-6.7,1c-5.72,0-6.65-.75-6.65-5.35,0-4.27,1.35-4.74,6.65-4.74a35.33,35.33,0,0,1,6.7.55" transform="translate(0 0)" fill="#410099"/>
      </g>
      <g clip-path="url(#clip-path)">
        <path d="M221.36,41.79l-4.07.58V21.45l-.4-.17a32.37,32.37,0,0,0-11.3-2.13c-9.4,0-13.06,4-13.06,14.36,0,10.11,3.57,14.62,11.56,14.62a28.31,28.31,0,0,0,8.36-1.59V58l4.84-.74V44.8l2-.78,2.44-1,5.94-2.2ZM212.45,43c-2.76.33-5.44.6-6.86.6-5.79,0-7.84-1.51-7.84-10s1.86-9.92,7.84-9.92a24.51,24.51,0,0,1,6.86.91Z" transform="translate(0 0)" fill="#410099"/>
      </g>
      <g clip-path="url(#clip-path)">
        <path d="M229.22,40.44C276.9,14,232.13-5.06,72.5,8,260.16-16.81,284.88,22.46,229.22,40.44" transform="translate(0 0)" fill="#ff671d"/>
      </g>
      <g clip-path="url(#clip-path)">
        <path d="M5.09,57.05A22.77,22.77,0,0,0,2.2,68.84,24.92,24.92,0,0,0,5.09,80.63H3.83a20.06,20.06,0,0,1,0-23.58Z" transform="translate(0 0)" fill="#ff671d"/>
      </g>
      <g clip-path="url(#clip-path)">
        <path d="M6.22,59H8.43v6.27h.05a3.48,3.48,0,0,1,3.25-2c3.81,0,4.28,4.46,4.28,7.4,0,4-1.34,7.41-4.59,7.41A3.2,3.2,0,0,1,8.37,76h0v1.73H6.22Zm4.91,17.22c2,0,2.57-2.31,2.57-5.52,0-3.36-.52-5.51-2.57-5.51-2.36,0-2.84,2.78-2.84,5.51,0,2.89.48,5.52,2.84,5.52" transform="translate(0 0)" fill="#ff671d"/>
      </g>
      <g clip-path="url(#clip-path)">
        <path d="M19.53,71c0,2.15,0,5.4,2.7,5.4,2.1,0,2.39-2.2,2.39-3.25h2.21c0,1.49-.9,5-4.73,5-3.44,0-4.88-2.39-4.88-7.22,0-3.52.68-7.59,5-7.59s4.7,3.76,4.7,6.77V71Zm5.09-1.74v-.76c0-1.57-.5-3.44-2.44-3.44-2.31,0-2.57,2.84-2.57,3.68v.52Z" transform="translate(0 0)" fill="#ff671d"/>
      </g>
      <g clip-path="url(#clip-path)">
        <rect x="28.79" y="59" width="2.21" height="18.74" fill="#ff671d"/>
      </g>
      <g clip-path="url(#clip-path)">
        <path d="M33.86,59h2.21v2.52H33.86Zm0,4.67h2.21V77.74H33.86Z" transform="translate(0 0)" fill="#ff671d"/>
      </g>
      <g clip-path="url(#clip-path)">
        <path d="M38.79,63.67H40.9v1.65H41a3.75,3.75,0,0,1,3.41-2c3.7,0,3.7,2.81,3.7,4.46v10h-2.2V68c0-1.08-.08-2.84-2.08-2.84A2.72,2.72,0,0,0,41,68v9.71H38.79Z" transform="translate(0 0)" fill="#ff671d"/>
      </g>
      <g clip-path="url(#clip-path)">
        <path d="M54.65,63.3c4.07,0,5.07,3.44,5.07,7.4s-1,7.41-5.07,7.41-5.07-3.44-5.07-7.41,1-7.4,5.07-7.4m2.76,7.4c0-3-.45-5.67-2.81-5.67s-2.71,2.63-2.71,5.67.45,5.67,2.71,5.67,2.81-2.62,2.81-5.67" transform="translate(0 0)" fill="#ff671d"/>
      </g>
      <g clip-path="url(#clip-path)">
        <path d="M67.8,67.79C67.8,66,67.33,65,65.73,65a2,2,0,0,0-2.29,2.16c0,1.65,1.73,2,3.47,2.54s3.44,1.18,3.44,4c0,3-1.92,4.41-4.55,4.41-4.77,0-4.83-3.55-4.83-5h2.21c0,1.7.47,3.25,2.62,3.25A2.21,2.21,0,0,0,68.14,74c0-1.89-1.73-2.29-3.44-2.86s-3.46-1.08-3.46-4c0-2.63,2-3.89,4.49-3.89,4.09,0,4.25,2.84,4.27,4.49Z" transform="translate(0 0)" fill="#ff671d"/>
      </g>
      <g clip-path="url(#clip-path)">
        <path d="M73.08,59.57h2.2v4.1h2.44V65.4H75.28v9c0,1.13.29,1.58,1.44,1.58a7.91,7.91,0,0,0,1-.08v1.81a9.5,9.5,0,0,1-1.79.16c-2.28,0-2.83-1-2.83-2.79V65.4H71V63.67h2Z" transform="translate(0 0)" fill="#ff671d"/>
      </g>
      <g clip-path="url(#clip-path)">
        <path d="M79.24,67.92c0-3.2,1.37-4.62,4.73-4.62,4.28,0,4.28,2.57,4.28,4v7.85c0,.58,0,1.13.68,1.13a.81.81,0,0,0,.53-.13v1.58a9,9,0,0,1-1.29.13c-.84,0-1.89,0-2-1.81h0a4,4,0,0,1-3.39,2c-2.62,0-3.83-1.58-3.83-4.1a3.63,3.63,0,0,1,2.65-3.88l3-.9c1.6-.5,1.6-.94,1.6-2.12S85.33,65,83.86,65c-2.41,0-2.41,2.26-2.41,2.76v.13ZM86,70.07c-.81.87-2.75,1.05-3.75,1.66A2.23,2.23,0,0,0,81.21,74c0,1.42.5,2.41,2,2.41A2.86,2.86,0,0,0,86,73.7Z" transform="translate(0 0)" fill="#ff671d"/>
      </g>
      <g clip-path="url(#clip-path)">
        <path d="M91.74,59.57h2.2v4.1h2.44V65.4H93.94v9c0,1.13.29,1.58,1.45,1.58a7.89,7.89,0,0,0,1-.08v1.81a9.5,9.5,0,0,1-1.79.16c-2.28,0-2.83-1-2.83-2.79V65.4h-2V63.67h2Z" transform="translate(0 0)" fill="#ff671d"/>
      </g>
      <g clip-path="url(#clip-path)">
        <path d="M96.78,80.63a22.78,22.78,0,0,0,2.88-11.79,24.91,24.91,0,0,0-2.88-11.79H98a20.06,20.06,0,0,1,0,23.58Z" transform="translate(0 0)" fill="#ff671d"/>
      </g>
      <g clip-path="url(#clip-path)">
        <path d="M111,65.4h-2V63.67h2V62c0-2.12.92-3.23,3-3.23h1.6v1.89h-1c-.94,0-1.41.37-1.41,1.34v1.66h2.41V65.4h-2.41V77.74H111Z" transform="translate(0 0)" fill="#ff671d"/>
      </g>
      <g clip-path="url(#clip-path)">
        <path d="M121.19,63.3c4.07,0,5.06,3.44,5.06,7.4s-1,7.41-5.06,7.41-5.07-3.44-5.07-7.41,1-7.4,5.07-7.4m2.75,7.4c0-3-.44-5.67-2.81-5.67s-2.7,2.63-2.7,5.67.45,5.67,2.7,5.67,2.81-2.62,2.81-5.67" transform="translate(0 0)" fill="#ff671d"/>
      </g>
      <g clip-path="url(#clip-path)">
        <path d="M127.91,63.67h2.2v2.1h0c.63-1.34,1.47-2.47,3.05-2.47a2.15,2.15,0,0,1,1,.16v2.15a6.79,6.79,0,0,0-1.18-.1,3.12,3.12,0,0,0-2.89,3.33v8.9h-2.2Z" transform="translate(0 0)" fill="#ff671d"/>
      </g>
      <g clip-path="url(#clip-path)">
        <path d="M141.53,59h2.2v2.52h-2.2Zm0,4.67h2.2V77.74h-2.2Z" transform="translate(0 0)" fill="#ff671d"/>
      </g>
      <g clip-path="url(#clip-path)">
        <path d="M146.6,63.67h2.1v1.65h.05a3.77,3.77,0,0,1,3.41-2c3.7,0,3.7,2.81,3.7,4.46v10h-2.2V68c0-1.08-.08-2.84-2.08-2.84A2.72,2.72,0,0,0,148.8,68v9.71h-2.2Z" transform="translate(0 0)" fill="#ff671d"/>
      </g>
      <g clip-path="url(#clip-path)">
        <path d="M160.8,79.1c0,2.31-1,3.47-3.36,3.47-.35,0-.69,0-1-.08V80.6a7.34,7.34,0,0,0,.82.08c1.36,0,1.36-1.05,1.36-2.36V63.67h2.21Zm0-17.58h-2.21V59h2.21Z" transform="translate(0 0)" fill="#ff671d"/>
      </g>
      <g clip-path="url(#clip-path)">
        <path d="M165.23,71c0,2.15,0,5.4,2.7,5.4,2.11,0,2.39-2.2,2.39-3.25h2.21c0,1.49-.89,5-4.73,5-3.43,0-4.88-2.39-4.88-7.22,0-3.52.68-7.59,5-7.59s4.7,3.76,4.7,6.77V71Zm5.09-1.74v-.76c0-1.57-.49-3.44-2.44-3.44-2.31,0-2.57,2.84-2.57,3.68v.52Z" transform="translate(0 0)" fill="#ff671d"/>
      </g>
      <g clip-path="url(#clip-path)">
        <path d="M181.45,68c0-1.37-.55-2.92-2.23-2.92-1.36,0-2.75.69-2.75,5.83,0,1.84,0,5.51,2.67,5.51,1.89,0,2.31-2,2.31-3.51h2.21c0,2.23-1.1,5.25-4.62,5.25s-4.88-2.39-4.88-7.22c0-3.52.68-7.59,5-7.59,3.83,0,4.49,3,4.49,4.65Z" transform="translate(0 0)" fill="#ff671d"/>
      </g>
      <g clip-path="url(#clip-path)">
        <path d="M187,59.57h2.2v4.1h2.44V65.4h-2.44v9c0,1.13.29,1.58,1.44,1.58a7.91,7.91,0,0,0,1-.08v1.81a9.5,9.5,0,0,1-1.79.16c-2.28,0-2.83-1-2.83-2.79V65.4h-2.05V63.67H187Z" transform="translate(0 0)" fill="#ff671d"/>
      </g>
      <g clip-path="url(#clip-path)">
        <path d="M194,59h2.2v2.52H194Zm0,4.67h2.2V77.74H194Z" transform="translate(0 0)" fill="#ff671d"/>
      </g>
      <g clip-path="url(#clip-path)">
        <path d="M203.32,63.3c4.07,0,5.07,3.44,5.07,7.4s-1,7.41-5.07,7.41-5.07-3.44-5.07-7.41,1-7.4,5.07-7.4m2.75,7.4c0-3-.44-5.67-2.8-5.67s-2.71,2.63-2.71,5.67.45,5.67,2.71,5.67,2.8-2.62,2.8-5.67" transform="translate(0 0)" fill="#ff671d"/>
      </g>
      <g clip-path="url(#clip-path)">
        <path d="M209.91,63.67H212v1.65h.05a3.77,3.77,0,0,1,3.41-2c3.7,0,3.7,2.81,3.7,4.46v10H217V68c0-1.08-.08-2.84-2.08-2.84A2.72,2.72,0,0,0,212.11,68v9.71h-2.2Z" transform="translate(0 0)" fill="#ff671d"/>
      </g>
      <g clip-path="url(#clip-path)">
        <path d="M228.75,27.14a4.65,4.65,0,0,1-7.92-3.34,4.43,4.43,0,0,1,1.46-3.39,4.55,4.55,0,0,1,3.2-1.26,4.64,4.64,0,0,1,4.65,4.65,4.47,4.47,0,0,1-1.39,3.34m-6-6a3.87,3.87,0,0,0,2.74,6.58,3.66,3.66,0,0,0,2.71-1.14,3.86,3.86,0,0,0,0-5.44,3.65,3.65,0,0,0-2.71-1.16,3.71,3.71,0,0,0-2.74,1.16m.7,5.29V21.23H226a2.46,2.46,0,0,1,1,.27,1.3,1.3,0,0,1,.68,1.23,1.14,1.14,0,0,1-.36.94,1.73,1.73,0,0,1-.89.35,1.66,1.66,0,0,1,.73.29,1.42,1.42,0,0,1,.46,1.16v.46a.76.76,0,0,0,0,.15.4.4,0,0,0,0,.15l.05.15h-1.29a3.57,3.57,0,0,1-.08-.71,2.49,2.49,0,0,0-.09-.63.6.6,0,0,0-.38-.38,1.42,1.42,0,0,0-.46-.09h-.58v1.82Zm2.46-4.14a2.23,2.23,0,0,0-.78-.11h-.33v1.5h.52a1.28,1.28,0,0,0,.74-.19.7.7,0,0,0,.27-.62.58.58,0,0,0-.42-.58" transform="translate(0 0)" fill="#410099"/>
      </g>
    </g>
  </g>
</svg>
