<svg xmlns="http://www.w3.org/2000/svg" width="161.19" height="437.9" viewBox="0 0 161.19 437.9">
  <g id="Layer_2" data-name="Layer 2">
    <g id="Man">
      <g>
        <path d="M79.72,2a25.75,25.75,0,0,1,6.8.88c5,1.4,8.43,5.2,10.44,9.9a24.19,24.19,0,0,1,1.93,7.84C99,21.67,99,22.81,99,24a1.15,1.15,0,0,1,.59-.15h.17c1.37.17,2.06,2.05,2.23,3.19a15.1,15.1,0,0,1-.09,3.29c-.07,1.14-.06,2.28-.21,3.42a4.82,4.82,0,0,1-.38,1.88c-.48.84-1.42,1.21-1.93,2a.87.87,0,0,1-.75.42,1.11,1.11,0,0,1-.46-.11l-.09,0c-.24,1.12-.51,2.21-.8,3.26a14.38,14.38,0,0,1-2.4,5.13c0,.34,0,.66,0,1a32.28,32.28,0,0,0,.13,4.17c.09.64.27,1.43.42,2.25a29.53,29.53,0,0,0,4.35,5.08,44.5,44.5,0,0,0,7.33,5.54c5.55,3.39,11.76,5.45,17.89,7.48,2.9,1,6.22,1.73,8.75,3.49a25.17,25.17,0,0,1,5.35,5.6c3.12,4.11,4.15,9.53,4.66,14.56a50.21,50.21,0,0,1-.19,10.61,22.33,22.33,0,0,0-.06,5.54c.21,1.5.62,2.94.12,4.42a.05.05,0,0,1,0,0c.3,2.59.62,5.17,1,7.74.76,5,1.7,9.9,2.57,14.85,1.79,10.09,2.7,20.29,4,30.45.74,5.92.08,18.85.07,19.06-.15,3.68-.27,7.36-.6,11,0,.14,0,.27,0,.41-.11,2.72-.19,5.45-.06,8.17a24.54,24.54,0,0,0,.81,2.69c.21.56.46,1.1.72,1.64.51.71.94,1.51,1.43,2.31,1.07,1.75,2.62,3.17,3.58,5,1.87,3.58.64,7.84,2,11.56a.87.87,0,0,1-.73,1.08,1.52,1.52,0,0,1-.71.18,2.43,2.43,0,0,1-1.84-1.34l-.12-.13c0,.12,0,.23,0,.32,0,.27-.06.59-.11.93,0,1.16-.07,2.35-.05,3.39,0,1.46.18,2.91.25,4.36a21.33,21.33,0,0,1-.58,7.3,2.18,2.18,0,0,1-1.88,1.66,1.72,1.72,0,0,1-1.5-1.14,6.47,6.47,0,0,1-.34-3.9,10.06,10.06,0,0,1-.12-3.88.66.66,0,0,1,0-.15c-.21-1.14-.24-2.32-.34-3.48-.11-.4-.23-.79-.33-1.19a14.23,14.23,0,0,0-.15,2.26,26.39,26.39,0,0,1-.13,5.18c-.21,1.39-.39,2.77-.55,4.16a6.53,6.53,0,0,1-.84,3,2.18,2.18,0,0,1-1.81,1,1.88,1.88,0,0,1-1.75-1.17,5.86,5.86,0,0,1-.22-3.37,11.45,11.45,0,0,1-.22-2.67,7.78,7.78,0,0,1,.28-2.05,12.28,12.28,0,0,1,0-1.35,8.57,8.57,0,0,1-.39-2.85,18.17,18.17,0,0,1,.06-2.56.36.36,0,0,1-.11-.19,1,1,0,0,0-.17-.47,10.21,10.21,0,0,1-.23,3.21c-.07.34-.17.83-.32,1.35,0,.24-.08.47-.11.68-.21,1.56,0,4.15-.71,5.9a5.06,5.06,0,0,1,0,1.1c-.12,1.09-.65,2.23-1.86,2.23h-.19c-2.14-.19-2.77-3.93-1.73-5.48,0-.26,0-.53,0-.8a5.69,5.69,0,0,1,0-3.37,11.2,11.2,0,0,1-.31-3.21,10.52,10.52,0,0,1,.28-2.93l-.34-.15a16.61,16.61,0,0,1-.6,3.42c-.79,2.49.4,5.5-1.46,7.61a.87.87,0,0,1-1.22,0,4.19,4.19,0,0,1-.44-.6.67.67,0,0,1-.62-.72c0-1.42-.34-2.81-.37-4.22,0-1.59.22-3.17.3-4.75.18-3.45-.05-6.9.13-10.34a41.88,41.88,0,0,1,1.58-8.88c.41-1.51.8-3,1.1-4.57a19.53,19.53,0,0,0,.21-3.4c-.63-2.39-1.31-4.75-2.12-7.09a144,144,0,0,1-5.41-19.12c-1.3-6.55-1.26-13.19-1.92-19.8-.67-6.81-2.71-13.31-4.15-20-.79-3.61-1.27-7.27-1.76-10.94-.17-1.22-.36-2.45-.51-3.69-.38,1.13-.85,2.24-1.26,3.35-1.78,4.77-3.5,9.43-3.87,14.55-.35,4.89.08,9.78.06,14.68,0,.67,0,1.34-.08,2,.17,1.29.28,2.6.45,3.86a44,44,0,0,1,.46,7.34,37.51,37.51,0,0,1-.82,6.52c.2,1.87.33,3.74.68,5.59.55,2.86,1.57,5.58,2.24,8.4,1.33,5.6,1.57,11.36,2.2,17.06.69,6.19,1.37,12.35,1.63,18.58s.59,12.6.77,18.9c.1,3.48-.09,6.92-.21,10.39a23.93,23.93,0,0,1-.09,4.21,139.4,139.4,0,0,1-1.19,14c-.58,5.08-1.34,10.14-2,15.2-.74,5.23-1.19,10.5-2,15.72-.26,1.68-.55,3.35-.79,5,0,.44,0,.88,0,1.32,0,3.48,0,7,.08,10.44,0,6.81,1.56,13.45,1.85,20.23.29,6.52-1,12.95-2.21,19.33-1.23,6.74-2.65,13.44-4.52,20a73.23,73.23,0,0,0-2.46,11.15,56.68,56.68,0,0,1-.89,6.89c-.1,1.59-.27,3.19-.4,4.8a28.88,28.88,0,0,0-.12,4.74c.14,1.73.64,3.42.93,5.13.53,3.11-.48,6.33.78,9.3a20.17,20.17,0,0,0,2,3.6,9.16,9.16,0,0,1,.87,1.47,1.67,1.67,0,0,1,.59-.11,1.9,1.9,0,0,1,1.08.35,3.19,3.19,0,0,1,1.11,2.87c0,1-.33,2.22-1.39,2.57a1.89,1.89,0,0,1-.53.08,2.25,2.25,0,0,1-1.17-.35,1.69,1.69,0,0,1-.79.52,1.51,1.51,0,0,1-.44.06,2.54,2.54,0,0,1-1.47-.49,1.94,1.94,0,0,1-1.22.4h0a3,3,0,0,1-2.28-1,4.83,4.83,0,0,1-2,.42h-.07a5.73,5.73,0,0,1-3.42-1.18c-.12.72-1.47,1.07-2.37,1.23A2.55,2.55,0,0,1,97,435.92c-2.09,0-4.63-1.59-4.78-3.64a1.26,1.26,0,0,1,0-.4,12.45,12.45,0,0,1-.62-3.16c-.18-1.73-.41-3.91.3-5.53a.67.67,0,0,1,.21-.28c0-1-.07-1.93-.13-2.9a30.92,30.92,0,0,1,0-5.27,35.25,35.25,0,0,1,1.16-5.08c.2-.78.38-1.56.53-2.34a34.62,34.62,0,0,0,.38-3.53c.09-2.58,0-5.17.08-7.75a83.33,83.33,0,0,0-1.38-16.83,117.52,117.52,0,0,1-2-16.62,80.93,80.93,0,0,1,1.54-16.72,60.94,60.94,0,0,0,1.08-10.17c.06-2.6-.07-5.23.09-7.83-.32-1.15-.71-2.29-1-3.39-1-3.36-1.91-6.76-2.81-10.16-1.86-7-1.8-14.22-2.52-21.39-.36-3.56-.65-7.12-1-10.67s-1.18-7.2-1.82-10.82a75.23,75.23,0,0,1-.82-10.61c-.13-3.74-.37-7.47-.64-11.2-.31-4.17-.56-8.34-.81-12.51-.12-2.05-.33-4.1-.31-6.16a21.42,21.42,0,0,1,.16-2.65s0-.06,0-.08A11.63,11.63,0,0,1,81.3,226v0l-.7-.07-.7.07v0a10.91,10.91,0,0,1-.5,2.25s0,.05,0,.08a21.43,21.43,0,0,1,.17,2.65c0,2.06-.19,4.11-.31,6.16-.25,4.17-.51,8.34-.81,12.51-.28,3.73-.52,7.46-.64,11.2A75.24,75.24,0,0,1,77,271.44c-.63,3.62-1.41,7.16-1.82,10.82s-.69,7.11-1,10.67c-.72,7.17-.66,14.38-2.53,21.39-.9,3.4-1.79,6.8-2.8,10.16-.33,1.1-.73,2.24-1,3.39.16,2.6,0,5.23.08,7.83a63.12,63.12,0,0,0,1.08,10.17,81.64,81.64,0,0,1,1.55,16.72,117.52,117.52,0,0,1-2,16.62A84.07,84.07,0,0,0,67,396c.1,2.58,0,5.17.09,7.75a34.6,34.6,0,0,0,.37,3.53c.16.78.33,1.56.53,2.34a35.28,35.28,0,0,1,1.17,5.08,30.92,30.92,0,0,1,0,5.27c-.06,1-.13,1.93-.13,2.9a.76.76,0,0,1,.21.28c.7,1.62.47,3.8.3,5.53a12.47,12.47,0,0,1-.63,3.16,1,1,0,0,1,0,.4c-.16,2.05-2.69,3.64-4.78,3.64a2.54,2.54,0,0,1-2.51-1.47c-.91-.16-2.25-.51-2.37-1.23a5.73,5.73,0,0,1-3.42,1.18h-.07a4.91,4.91,0,0,1-2-.42,3,3,0,0,1-2.28,1h0a1.94,1.94,0,0,1-1.21-.4,2.57,2.57,0,0,1-1.47.49,1.58,1.58,0,0,1-.45-.06,1.74,1.74,0,0,1-.79-.52,2.22,2.22,0,0,1-1.17.35,1.82,1.82,0,0,1-.52-.08c-1.06-.35-1.35-1.59-1.4-2.57a3.19,3.19,0,0,1,1.12-2.87,1.9,1.9,0,0,1,1.08-.35,1.71,1.71,0,0,1,.59.11,8.48,8.48,0,0,1,.87-1.47,21.5,21.5,0,0,0,2-3.6c1.25-3,.25-6.19.77-9.3.29-1.71.8-3.4.94-5.13a30,30,0,0,0-.12-4.74c-.13-1.61-.31-3.21-.4-4.8a53,53,0,0,1-.89-6.89A73.23,73.23,0,0,0,48,382c-1.87-6.6-3.29-13.3-4.53-20-1.17-6.38-2.49-12.81-2.21-19.33.3-6.78,1.81-13.42,1.86-20.23,0-3.48.12-7,.08-10.44q0-.66,0-1.32c-.25-1.67-.54-3.34-.79-5-.79-5.22-1.25-10.49-2-15.72-.71-5.06-1.46-10.12-2-15.2a139.41,139.41,0,0,1-1.2-14,23.93,23.93,0,0,1-.09-4.21c-.11-3.47-.31-6.91-.21-10.39.19-6.3.51-12.6.77-18.9s.94-12.39,1.63-18.58c.64-5.7.87-11.46,2.2-17.06.67-2.82,1.7-5.54,2.24-8.4.36-1.85.48-3.72.69-5.59a36.57,36.57,0,0,1-.82-6.52,44,44,0,0,1,.46-7.34c.17-1.26.28-2.57.44-3.86,0-.67-.07-1.34-.07-2,0-4.9.41-9.79,0-14.68-.36-5.12-2.08-9.78-3.87-14.55-.41-1.11-.87-2.22-1.26-3.35-.15,1.24-.34,2.47-.5,3.69-.49,3.67-1,7.33-1.76,10.94-1.45,6.66-3.49,13.16-4.16,20-.65,6.61-.62,13.25-1.91,19.8a147.13,147.13,0,0,1-5.41,19.12c-.81,2.34-1.49,4.7-2.12,7.09a18.6,18.6,0,0,0,.21,3.4c.29,1.54.69,3.06,1.1,4.57a41.86,41.86,0,0,1,1.57,8.88c.19,3.44-.05,6.89.13,10.34.09,1.58.33,3.16.3,4.75,0,1.41-.39,2.8-.36,4.22a.68.68,0,0,1-.62.72,4.19,4.19,0,0,1-.44.6.87.87,0,0,1-1.22,0c-1.86-2.11-.68-5.12-1.46-7.61a15.94,15.94,0,0,1-.6-3.42l-.35.15a10.55,10.55,0,0,1,.29,2.93,11.57,11.57,0,0,1-.31,3.21,5.62,5.62,0,0,1,0,3.37c0,.27,0,.54,0,.8,1,1.55.4,5.29-1.74,5.48H19.8c-1.21,0-1.74-1.14-1.86-2.23a5.06,5.06,0,0,1,0-1.1c-.7-1.75-.5-4.34-.72-5.9,0-.21-.06-.44-.1-.68-.16-.52-.26-1-.33-1.35a10.53,10.53,0,0,1-.22-3.21,1,1,0,0,0-.18.47.29.29,0,0,1-.1.19,18.17,18.17,0,0,1,.06,2.56,8.58,8.58,0,0,1-.4,2.85,10.19,10.19,0,0,1,0,1.35,8.22,8.22,0,0,1,.28,2.05A12.64,12.64,0,0,1,16,246a5.86,5.86,0,0,1-.22,3.37A1.9,1.9,0,0,1,14,250.52a2.21,2.21,0,0,1-1.81-1,6.65,6.65,0,0,1-.84-3c-.16-1.39-.33-2.77-.54-4.16a26.4,26.4,0,0,1-.14-5.18,14.22,14.22,0,0,0-.14-2.26c-.11.4-.22.79-.34,1.19-.1,1.16-.13,2.34-.34,3.48a.66.66,0,0,1,0,.15,10.06,10.06,0,0,1-.13,3.88,6.48,6.48,0,0,1-.33,3.9,1.73,1.73,0,0,1-1.51,1.14A2.18,2.18,0,0,1,6,247a21.08,21.08,0,0,1-.58-7.3c.06-1.45.22-2.9.25-4.36,0-1-.07-2.23-.06-3.39,0-.34-.07-.66-.1-.93,0-.09,0-.2,0-.32l-.13.13a2.41,2.41,0,0,1-1.83,1.34,1.53,1.53,0,0,1-.72-.18A.87.87,0,0,1,2,230.91c1.4-3.72.17-8,2.05-11.56,1-1.82,2.5-3.24,3.57-5,.49-.8.92-1.6,1.44-2.31.26-.54.5-1.08.72-1.64a22.49,22.49,0,0,0,.8-2.69c.14-2.72.06-5.45-.06-8.17l0-.41c-.34-3.67-.45-7.35-.61-11l0-.65a.72.72,0,0,1-.42-.69A129.4,129.4,0,0,1,10,169.05c1.27-10.16,2.18-20.36,4-30.45.88-4.95,1.82-9.88,2.58-14.85.39-2.57.71-5.15,1-7.74,0,0,0,0,0,0-.51-1.48-.1-2.92.12-4.42a21.85,21.85,0,0,0-.07-5.54,51.58,51.58,0,0,1-.19-10.61c.52-5,1.54-10.45,4.67-14.56a25.13,25.13,0,0,1,5.34-5.6c2.54-1.76,5.85-2.53,8.75-3.49,6.14-2,12.35-4.09,17.89-7.48a44.58,44.58,0,0,0,7.34-5.54,29.48,29.48,0,0,0,4.34-5.08c.15-.82.33-1.61.42-2.25a30.59,30.59,0,0,0,.14-4.17A10.87,10.87,0,0,1,66.41,45a14.12,14.12,0,0,1-3-6l-1.16.37a.58.58,0,0,1-.19,0,.83.83,0,0,1-.61-.35,13.22,13.22,0,0,1-2.13-4,13.44,13.44,0,0,1-1-3.81c-.24-1.83-.51-4,.68-5.62a2,2,0,0,1,1.28-.7,1.43,1.43,0,0,1,.46-.07,1.35,1.35,0,0,1,.55.11A32,32,0,0,1,63.1,12.29c1.37-3.71,3.78-7,7.47-8.57A23.3,23.3,0,0,1,79.72,2m0-2h0a25.1,25.1,0,0,0-9.94,1.9C65.9,3.59,63,7,61.24,11.6a33.67,33.67,0,0,0-2,11.59,3.81,3.81,0,0,0-1.83,1.29c-1.68,2.27-1.32,5-1.06,7.07a15.57,15.57,0,0,0,1.09,4.26,15.11,15.11,0,0,0,2.42,4.46,2.78,2.78,0,0,0,2.15,1.13,17.39,17.39,0,0,0,2.27,4.13c0,.48,0,.94,0,1.35v1.37a20.57,20.57,0,0,1-.11,2.87c0,.34-.14.77-.23,1.23,0,.18-.07.36-.11.54A28.56,28.56,0,0,1,60,57.29a42.06,42.06,0,0,1-7,5.28c-5.34,3.28-11.5,5.32-17.46,7.29-.6.2-1.2.38-1.81.57a26.12,26.12,0,0,0-7.46,3.18,26.42,26.42,0,0,0-5.79,6c-3.56,4.67-4.57,10.77-5.06,15.55a51.71,51.71,0,0,0,.19,11,20.38,20.38,0,0,1,.07,5.06c0,.25-.08.5-.12.76a9.4,9.4,0,0,0,0,4.17c-.32,2.82-.62,5.13-.95,7.25-.56,3.66-1.23,7.37-1.88,11-.23,1.28-.46,2.56-.68,3.84-1.28,7.21-2.13,14.57-2.94,21.69-.33,2.91-.68,5.91-1.05,8.87a121.89,121.89,0,0,0-.56,16.47l0,1.51a2.77,2.77,0,0,0,.46,1.51L8,189.93c.12,3.07.25,6.25.54,9.39l0,.25v.11c.11,2.49.18,5.14.07,7.75A20.28,20.28,0,0,1,8,209.7c-.16.41-.35.85-.58,1.34s-.68,1.06-1,1.58l-.42.7a19.45,19.45,0,0,1-1.48,2,18.64,18.64,0,0,0-2.16,3.09,16.11,16.11,0,0,0-1.45,7.05,16.09,16.09,0,0,1-.7,4.74,2.72,2.72,0,0,0,.2,2.31,3,3,0,0,0,1.72,1.35,3.57,3.57,0,0,0,1.39.29h.16c0,.4,0,.79,0,1.14,0,.81-.07,1.61-.13,2.47,0,.61-.09,1.23-.12,1.84a23,23,0,0,0,.68,8,4.14,4.14,0,0,0,3.76,3,3.36,3.36,0,0,0,2.24-.85,5.32,5.32,0,0,0,.47.83A4.16,4.16,0,0,0,14,252.51a3.89,3.89,0,0,0,3.57-2.35c.07-.15.13-.31.19-.48a3.54,3.54,0,0,0,2,.62l.36,0a4.2,4.2,0,0,0,3.38-2.54,6.63,6.63,0,0,0,.61-2.18,3.18,3.18,0,0,0,.62.06,2.8,2.8,0,0,0,2.09-.91,3.07,3.07,0,0,0,.24-.29,2.65,2.65,0,0,0,1.32-2.4,14.18,14.18,0,0,1,.17-2,20.55,20.55,0,0,0,.2-2.17,30.35,30.35,0,0,0-.17-3.21c-.05-.56-.1-1.12-.13-1.67-.09-1.67-.08-3.39-.06-5.05s0-3.51-.07-5.3a43.29,43.29,0,0,0-1.65-9.29c-.44-1.64-.8-3-1.06-4.42a14.57,14.57,0,0,1-.17-2.6v-.18c.68-2.57,1.32-4.7,2-6.69A146.1,146.1,0,0,0,33,180.08a103.36,103.36,0,0,0,1.44-13.29c.14-2.2.28-4.48.5-6.7a98.88,98.88,0,0,1,2.68-13.67c.49-2,1-4,1.44-6.07.5-2.29.88-4.61,1.21-6.91a38.71,38.71,0,0,1,2.26,9.9,88.12,88.12,0,0,1,0,9c0,1.79-.11,3.65-.1,5.5,0,.61,0,1.24.07,1.94s-.13,1.13-.19,1.7-.15,1.31-.23,2a46,46,0,0,0-.48,7.67,38.76,38.76,0,0,0,.8,6.55c0,.36-.08.72-.11,1.08-.14,1.41-.27,2.73-.52,4a47.64,47.64,0,0,1-1.21,4.65c-.35,1.19-.71,2.41-1,3.66a92.36,92.36,0,0,0-1.79,12.73c-.14,1.5-.28,3.06-.45,4.57-.61,5.42-1.36,12.16-1.64,18.72-.08,1.77-.15,3.53-.23,5.3-.2,4.46-.41,9.08-.54,13.63-.08,2.77,0,5.54.12,8.22,0,.76.06,1.52.08,2.28,0,.35,0,.77,0,1.22a14,14,0,0,0,.12,3.14c.07,4.21.56,8.42,1,12.51l.17,1.5c.47,4.09,1.06,8.22,1.62,12.22.15,1,.29,2,.43,3,.33,2.34.61,4.74.87,7.06.33,2.84.67,5.78,1.11,8.68.12.77.24,1.54.37,2.31s.27,1.7.4,2.55c0,.4,0,.8,0,1.2,0,2.33,0,4.7,0,7,0,1.14,0,2.27,0,3.41a92.92,92.92,0,0,1-.93,10.8c-.39,3-.79,6.19-.92,9.35-.27,6.21.85,12.3,1.95,18.19l.29,1.58c1.45,7.93,2.9,14.36,4.56,20.23a71.87,71.87,0,0,1,2.41,10.84c.08.68.14,1.36.2,2a32.7,32.7,0,0,0,.69,4.92c.06,1,.15,1.95.23,2.9.06.58.11,1.17.16,1.76a28.15,28.15,0,0,1,.12,4.42,22.21,22.21,0,0,1-.52,3c-.14.65-.28,1.32-.4,2a21.28,21.28,0,0,0-.16,4.19,11.18,11.18,0,0,1-.48,4.66,18.1,18.1,0,0,1-1.83,3.26l-.35.53a4.09,4.09,0,0,0-1.66.65,5.06,5.06,0,0,0-2,4.6c.09,2.24,1.1,3.83,2.76,4.38a4,4,0,0,0,1.14.17,3.94,3.94,0,0,0,.9-.1,2.92,2.92,0,0,0,.49.19,3.75,3.75,0,0,0,1,.14,4.54,4.54,0,0,0,1.49-.26,3.94,3.94,0,0,0,1.19.18,5.18,5.18,0,0,0,2.73-.79,8.21,8.21,0,0,0,1.57.18h.1a7.28,7.28,0,0,0,3.14-.71,6.19,6.19,0,0,0,1.4.53,4.66,4.66,0,0,0,3.76,1.69c3,0,6.51-2.24,6.76-5.47,0-.12,0-.23,0-.35a15.44,15.44,0,0,0,.56-3.16c.2-1.89.46-4.44-.45-6.53a.59.59,0,0,0,0-.08c0-.62.06-1.25.1-1.91l0-.27a31.85,31.85,0,0,0,0-5.61,25.4,25.4,0,0,0-.89-4.15c-.11-.4-.22-.8-.32-1.21-.18-.67-.34-1.38-.5-2.17a32.85,32.85,0,0,1-.35-3.27c0-1.24,0-2.53,0-3.78s0-2.64,0-4a81.37,81.37,0,0,1,1.36-16.42l.26-1.55a107.63,107.63,0,0,0,1.8-15.35,82.44,82.44,0,0,0-1.58-17.13,59.72,59.72,0,0,1-1-9.86c0-1,0-2,0-3,0-1.48,0-3-.06-4.52.17-.59.36-1.2.55-1.78.13-.42.27-.84.39-1.25.9-3,1.71-6,2.49-9l.33-1.25a82.23,82.23,0,0,0,2.1-15.56c.13-2,.28-4.11.48-6.14.14-1.36.26-2.72.39-4.08.2-2.16.41-4.39.65-6.57.29-2.54.75-5,1.24-7.59.19-1,.39-2.07.57-3.11a73.87,73.87,0,0,0,.84-10.41v-.47c.14-4,.41-8.06.64-11.13.06-.79.11-1.59.17-2.38.05.79.11,1.59.17,2.38.22,3.07.5,7.11.63,11.13l0,.47a73.85,73.85,0,0,0,.83,10.41c.19,1,.38,2.08.58,3.11.48,2.6.94,5.05,1.23,7.59.25,2.18.45,4.42.65,6.58l.39,4.07c.21,2,.35,4.12.49,6.14a82.1,82.1,0,0,0,2.09,15.56l.33,1.25c.79,2.95,1.59,6,2.49,9,.13.41.26.83.4,1.25.18.58.37,1.19.54,1.78-.07,1.52-.06,3,0,4.52,0,1,0,2,0,3a60.84,60.84,0,0,1-1,9.86,83.13,83.13,0,0,0-1.58,17.13A107.63,107.63,0,0,0,90.56,378l.26,1.55A82.85,82.85,0,0,1,92.18,396c-.05,1.34-.05,2.68-.05,4s0,2.54,0,3.78a32,32,0,0,1-.35,3.26c-.16.8-.32,1.51-.49,2.18-.1.41-.21.81-.33,1.21a26.49,26.49,0,0,0-.89,4.15,32.84,32.84,0,0,0,0,5.61v.27c0,.66.08,1.29.1,1.91a.2.2,0,0,1,0,.08c-.9,2.09-.64,4.64-.45,6.5a16.07,16.07,0,0,0,.57,3.19c0,.12,0,.23,0,.35.24,3.23,3.76,5.47,6.76,5.47a4.65,4.65,0,0,0,3.75-1.69,6,6,0,0,0,1.4-.53,7.32,7.32,0,0,0,3.15.71h.09a8,8,0,0,0,1.57-.18,5.17,5.17,0,0,0,2.72.79,4,4,0,0,0,1.2-.18,4.6,4.6,0,0,0,1.5.26,3.62,3.62,0,0,0,1-.14,3,3,0,0,0,.5-.19,3.86,3.86,0,0,0,.89.1,3.58,3.58,0,0,0,1.14-.18c1.67-.54,2.67-2.13,2.77-4.37a5.06,5.06,0,0,0-2-4.6,4.15,4.15,0,0,0-1.66-.65l-.36-.52a19.87,19.87,0,0,1-1.83-3.27,11.35,11.35,0,0,1-.48-4.66,19.85,19.85,0,0,0-.16-4.19c-.11-.68-.26-1.35-.4-2a22.14,22.14,0,0,1-.51-3,27,27,0,0,1,.12-4.42c0-.59.1-1.17.15-1.76.09-.95.18-1.93.24-2.9a34,34,0,0,0,.69-4.92c.06-.68.12-1.36.2-2a70.66,70.66,0,0,1,2.4-10.84c1.66-5.87,3.11-12.3,4.57-20.23l.29-1.58c1.09-5.89,2.22-12,2-18.19-.14-3.16-.54-6.31-.92-9.35a92.93,92.93,0,0,1-.94-10.8c0-1.14,0-2.27,0-3.41,0-2.3-.06-4.67,0-7v-1.2c.12-.85.26-1.7.4-2.55s.25-1.54.36-2.31c.44-2.9.78-5.84,1.11-8.69.27-2.32.55-4.71.87-7.05.15-1,.29-2,.43-3,.57-4,1.15-8.12,1.62-12.21l.18-1.5c.47-4.09,1-8.3,1-12.51a14,14,0,0,0,.11-3.14c0-.45,0-.87,0-1.22,0-.76,0-1.52.08-2.28.1-2.68.21-5.45.13-8.22-.13-4.56-.34-9.19-.54-13.66l-.24-5.27c-.25-6.07-.86-11.83-1.63-18.72-.17-1.51-.32-3.07-.45-4.57a92.36,92.36,0,0,0-1.79-12.73c-.3-1.25-.66-2.47-1-3.66a47.74,47.74,0,0,1-1.22-4.65c-.25-1.31-.38-2.63-.51-4,0-.37-.07-.73-.11-1.09a39.65,39.65,0,0,0,.79-6.55,44.8,44.8,0,0,0-.47-7.67c-.09-.65-.16-1.3-.23-2s-.12-1.14-.19-1.7.06-1.33.06-1.94c0-1.85,0-3.71-.09-5.51-.09-3-.18-6.06,0-9a39.13,39.13,0,0,1,2.26-9.9c.34,2.3.72,4.62,1.22,6.91.44,2,.94,4.09,1.43,6.07a98.91,98.91,0,0,1,2.69,13.67c.22,2.22.36,4.5.5,6.7a101.61,101.61,0,0,0,1.44,13.29,143.11,143.11,0,0,0,5.48,19.39c.69,2,1.33,4.12,2,6.69v.18a15.49,15.49,0,0,1-.17,2.6c-.27,1.4-.62,2.77-1.07,4.42a43.21,43.21,0,0,0-1.64,9.29c-.1,1.79-.08,3.57-.07,5.3s0,3.38-.06,5.05c0,.55-.08,1.11-.13,1.67a27.78,27.78,0,0,0-.17,3.21,18.2,18.2,0,0,0,.2,2.17,14.09,14.09,0,0,1,.16,2,2.68,2.68,0,0,0,1.32,2.4l.24.29a2.8,2.8,0,0,0,2.1.91,3.08,3.08,0,0,0,.61-.06,6.88,6.88,0,0,0,.61,2.18,4.2,4.2,0,0,0,3.38,2.54l.37,0a3.54,3.54,0,0,0,2-.62c.06.17.12.33.19.48a3.88,3.88,0,0,0,3.56,2.35,4.19,4.19,0,0,0,3.46-1.88,5.25,5.25,0,0,0,.46-.83,3.4,3.4,0,0,0,2.24.85,4.13,4.13,0,0,0,3.76-3,22.49,22.49,0,0,0,.68-8c0-.61-.07-1.23-.11-1.84-.06-.85-.12-1.66-.14-2.47,0-.35,0-.74,0-1.14h.16a3.52,3.52,0,0,0,1.38-.29,3,3,0,0,0,1.72-1.35,2.65,2.65,0,0,0,.2-2.31,15.77,15.77,0,0,1-.69-4.74,16.25,16.25,0,0,0-1.45-7.05,19.26,19.26,0,0,0-2.16-3.09,19.45,19.45,0,0,1-1.48-2c-.15-.23-.29-.47-.42-.7-.31-.52-.63-1.06-1-1.58s-.42-.93-.57-1.34a18.67,18.67,0,0,1-.69-2.27c-.12-2.61,0-5.26.06-7.75v-.11l0-.25c.28-3.14.41-6.31.54-9.38l.07-1.74v-.06c.11-2.24.61-13.73-.09-19.33-.37-3-.71-6-1-8.87-.82-7.12-1.66-14.48-2.94-21.69l-.69-3.84c-.65-3.59-1.32-7.3-1.88-11-.32-2.12-.62-4.44-.94-7.25a9.41,9.41,0,0,0,0-4.17c-.05-.26-.09-.51-.13-.76a20.87,20.87,0,0,1,.08-5.06,52.38,52.38,0,0,0,.19-11c-.49-4.78-1.51-10.88-5.06-15.55a26.86,26.86,0,0,0-5.79-6,26.36,26.36,0,0,0-7.46-3.18c-.61-.19-1.22-.37-1.8-.57-6-2-12.14-4-17.48-7.29a42.91,42.91,0,0,1-7-5.28,28.56,28.56,0,0,1-3.83-4.4c0-.18-.07-.36-.1-.54-.1-.46-.18-.89-.23-1.23a20.53,20.53,0,0,1-.12-2.87c0-.35,0-.7,0-1v-.29a16.79,16.79,0,0,0,2.32-5.25c.17-.61.33-1.22.48-1.85a2.78,2.78,0,0,0,1.38-1.14,3.58,3.58,0,0,1,.51-.47,5.7,5.7,0,0,0,1.48-1.63,5.15,5.15,0,0,0,.58-2.2c0-.13,0-.26,0-.39.11-.85.14-1.66.17-2.45,0-.37,0-.74,0-1.11s0-.53.07-.79a11.84,11.84,0,0,0,0-2.92c-.27-1.77-1.21-3.88-3-4.62,0-.6-.07-1.15-.11-1.63A26,26,0,0,0,98.79,12C96.32,6.22,92.26,2.4,87.05,1A28,28,0,0,0,79.72,0Z" fill="#c2d2e4"/>
        <path d="M75.88,76.16c-.23,3.75-1.68,40-.68,45.47s3.82,14.59,4.89,15.81,2,1.15,2,1.15-.3,2.52.31,3.67a7.34,7.34,0,0,0,1.07,1.6,20.61,20.61,0,0,0-2.91,3.06c-2.21,2.6-2.67,4.13-4.43,4.43a8.46,8.46,0,0,1-5.88-.76c-1.84-1.15-8.55-2.89-10.78-3.44-.91-.23-4.73-1-6,1.91a10.88,10.88,0,0,0-.91,5.19" fill="none" stroke="#ccd9e8" stroke-linecap="round" stroke-linejoin="round" stroke-width="1.49"/>
        <path d="M60.37,168.82s.21.16.31,1.38a3.14,3.14,0,0,1-.72,2.14,11.83,11.83,0,0,1,1,3.06,5.61,5.61,0,0,1-.91,3.15,10,10,0,0,1,1.22,3,5.31,5.31,0,0,1-.31,2.54,24.5,24.5,0,0,1,.72,2.45,2.65,2.65,0,0,1-.21,2s.51,1,1,2.24a3.17,3.17,0,0,1,.1,2.24A2.46,2.46,0,0,1,64,194a6.72,6.72,0,0,1,1,2.14s2.14,1.43,2.44,2.95-1.63,3-1.63,3a8.59,8.59,0,0,1,2.35.3,4.44,4.44,0,0,1,2,2.24c.31.92,2,1.94,2.25,2.35a10.22,10.22,0,0,1,.2,4.48c-.41,1.33-1.12-1-1.33-2.55s-1.42-1-2.34-2.75-.61-1.83-1.83-2.14-2.35,1.63-2.35,1.63-1,4.18-3,5.81-3.16.82-5.5-.41-2.45-4.17-2.45-4.17A4.67,4.67,0,0,1,51,203.82a5.6,5.6,0,0,1,.51-4.69,5.71,5.71,0,0,1-1.43-2.65,3.18,3.18,0,0,1,.21-2.75s-.82-.2-1.13-1.63a4.57,4.57,0,0,1,.92-3,3.16,3.16,0,0,1-1.32-2.45,5.52,5.52,0,0,1,.51-3.36A5.22,5.22,0,0,1,48,179.88c-.2-2.45.72-3.26.72-3.26s-.82-.51-.72-2.65a3.66,3.66,0,0,1,1.12-2.85,3.59,3.59,0,0,1-.91-2.35,8.22,8.22,0,0,1,.81-3.05,3.33,3.33,0,0,1-.81-1.94,3.78,3.78,0,0,1,1.12-2.44,4,4,0,0,1-.92-2,3.68,3.68,0,0,1,1.22-3c.92-1,1.63-.4,1.63-.4a2.26,2.26,0,0,1,1.53-1.69,3.76,3.76,0,0,1,2.65.36s2.45-.3,3.36.41a9.06,9.06,0,0,1,1.74,2s1.63.51,2,1.52a9.37,9.37,0,0,0,.92,1.74,2.4,2.4,0,0,1,1.53.51,3.45,3.45,0,0,1,1.32,2,3.83,3.83,0,0,1,1.94,0,7,7,0,0,1,1.83,1.33,10.16,10.16,0,0,1,3-.41A12.47,12.47,0,0,1,76.47,165a9.51,9.51,0,0,1,3.36-1.12,24.71,24.71,0,0,1,5,.31,17,17,0,0,1,2.75-1.84,14.28,14.28,0,0,1,2.75-.81,2,2,0,0,1,1.12-1.94c1.23-.51,2.25-.81,2.25-.81A2.15,2.15,0,0,1,94.3,157a4.94,4.94,0,0,1,1.93-1.12s-.2-.61.92-1.93,1.94-1.33,1.94-1.33a4.26,4.26,0,0,1,.91-2.44,3.81,3.81,0,0,1,1.73-1.33,6,6,0,0,1,.51-2.75c.62-1.12,1.13-1,1.13-1s-.62-1.52,1.12-1.52a4.68,4.68,0,0,1,2.75.81,2.73,2.73,0,0,1,2.24,1,6.6,6.6,0,0,1,.71,3.36l-1.22.82a5.37,5.37,0,0,1,.1,2.44,2.56,2.56,0,0,1-1,1.33,21.16,21.16,0,0,1-1,2.44,1.52,1.52,0,0,1-.91.82,2.65,2.65,0,0,1-.51,2.14,7.83,7.83,0,0,1-2.45,2.24,4.51,4.51,0,0,1-1.43,2.65,16.2,16.2,0,0,1-4.27,1.93,4,4,0,0,1-1.23,1.84,4.06,4.06,0,0,1-2.44.91,5.5,5.5,0,0,1-2.55,2.24,23.36,23.36,0,0,1-4.38,1.13s-2.55,2.13-5.09,2.13a14.42,14.42,0,0,1-5.4-1.42s-2.35,1.73-4.28,1.12A12.5,12.5,0,0,1,68,170.61a1.9,1.9,0,0,1-2.54.1,4.88,4.88,0,0,1-1.94-2.34,3.46,3.46,0,0,1-2.45.3,10.66,10.66,0,0,1-2.64-1.83,2.94,2.94,0,0,1-2.55-1.12,4.43,4.43,0,0,1-1-2.45,21.48,21.48,0,0,0-2.24-1.12" fill="none" stroke="#ccd9e8" stroke-linecap="round" stroke-linejoin="round" stroke-width="1.49"/>
        <path d="M98.78,165.51a8.2,8.2,0,0,0-.1,1.63,3.35,3.35,0,0,0,.92,2.14s-.72.41-1.23,2.35a1.53,1.53,0,0,0,1.23,2.13,12.67,12.67,0,0,0-1.84,5.1c-.51,3.26,1.12,3.36,1.12,3.36a8,8,0,0,0-.81,2.75,3.45,3.45,0,0,0,.4,2.75,3.38,3.38,0,0,0-.91,1.73c-.31,1.23,1.12,2.55,1.12,2.55a4.46,4.46,0,0,0-.82,2.14,4,4,0,0,0,.92,2.75A5.52,5.52,0,0,0,97.15,199a3.94,3.94,0,0,0-.61,2.75,18.36,18.36,0,0,0-2.65.21c-1.22.2-2.55,2-2.55,2a3.86,3.86,0,0,0-.91-.81c-.31-.1-1.33.51-1.84,0s-3.56-3.57-5.5-4-4.58,2.13-5.5,5.29S78.91,211,78.91,211s-2.34,3.36-1.83,5.4S78.91,220,79.32,221s.2,3.56.31,4.58.56-.86,1.37-.76a2.91,2.91,0,0,1,1.53.92s-.25-3.32,1.17-4.23,2.14-3.67,1.84-5.1A5.52,5.52,0,0,0,84.21,214s2.14-.92,2.34-2.55" fill="none" stroke="#ccd9e8" stroke-linecap="round" stroke-linejoin="round" stroke-width="1.49"/>
        <path d="M110.09,149.11c.61,1.94-.61,4.89-.61,4.89a7.14,7.14,0,0,1,.51,3.57,11,11,0,0,1-1.23,3.26s1.23,2.44.82,4.07a19.15,19.15,0,0,1-1,3,4.88,4.88,0,0,1,.51,2.44,8.55,8.55,0,0,1-.71,3.16,9.42,9.42,0,0,1,1,3.57,7.87,7.87,0,0,1-.82,2.64s.82.82.71,1.53a10.66,10.66,0,0,1-.61,1.94,2.22,2.22,0,0,1,.92,2.14,6.05,6.05,0,0,1-.82,2.34,3.61,3.61,0,0,1,.72,2.55,5.33,5.33,0,0,1-.82,2.24,5.53,5.53,0,0,1,.41,2.75,6.12,6.12,0,0,1-.71,2.24,5.42,5.42,0,0,1,.1,3.06,17.71,17.71,0,0,1-1.94,2.85,21.5,21.5,0,0,1-1.63,3.26,3.35,3.35,0,0,1-2,1.43,3.35,3.35,0,0,1-1.43,2c-1.22.82-3.87.51-3.87.51a4.44,4.44,0,0,1-2.85,1.63c-1.94.31-4.18-1.32-4.28-1.42A3.38,3.38,0,0,1,87,211a22.48,22.48,0,0,1-5.09-4" fill="none" stroke="#ccd9e8" stroke-linecap="round" stroke-linejoin="round" stroke-width="1.49"/>
        <path d="M65.57,195.57a5.69,5.69,0,0,1,4.07.91c1.23.92,1.23,1.13,2.65,3.37s5.1,3.66,5.1,3.66" fill="none" stroke="#ccd9e8" stroke-linecap="round" stroke-linejoin="round" stroke-width="1.49"/>
        <path d="M61.49,176.21a9,9,0,0,0,4.18,0c1.43-.41,4-.81,4.48-1.32a12.84,12.84,0,0,0,1.12-1.38" fill="none" stroke="#ccd9e8" stroke-linecap="round" stroke-linejoin="round" stroke-width="1.49"/>
        <path d="M60.78,171.52a5.5,5.5,0,0,1,2.39-1.17,8.72,8.72,0,0,1,1.84.15" fill="none" stroke="#ccd9e8" stroke-linecap="round" stroke-linejoin="round" stroke-width="1.49"/>
        <path d="M63.84,176.72a4.51,4.51,0,0,1-.16,2.7,8.1,8.1,0,0,1,2.8,1.48c.72.81,1.89.2,2.75.1a6,6,0,0,1,2.55.05A4.54,4.54,0,0,1,73.51,183c0,.25.82-2.4,2.5-2.4s4.08.31,4.48.31" fill="none" stroke="#ccd9e8" stroke-linecap="round" stroke-linejoin="round" stroke-width="1.49"/>
        <path d="M68.11,176.06a2.5,2.5,0,0,0,.06,2.39c.5.71,1.37,1.78,2,1.89a6.52,6.52,0,0,1,1.63.71" fill="none" stroke="#ccd9e8" stroke-linecap="round" stroke-linejoin="round" stroke-width="1.49"/>
        <path d="M71.53,178.2a3.32,3.32,0,0,1,.66-1.07,2,2,0,0,1,1.07-.31s.46-1.88,1.48-2.14a29.55,29.55,0,0,1,6.36.21c1.07.2,4.38.91,4.79,2.44s1.48,3.87.51,5.6a5.06,5.06,0,0,1-2.29,2.25" fill="none" stroke="#ccd9e8" stroke-linecap="round" stroke-linejoin="round" stroke-width="1.49"/>
        <line x1="73.36" y1="178.55" x2="73.41" y2="177.03" fill="none" stroke="#ccd9e8" stroke-linecap="round" stroke-linejoin="round" stroke-width="1.49"/>
        <path d="M81.16,179.32s-1.38.35-1.38,1.27" fill="none" stroke="#ccd9e8" stroke-linecap="round" stroke-linejoin="round" stroke-width="1.49"/>
        <path d="M65.82,185.58a6.73,6.73,0,0,0-.91,3.16,10.9,10.9,0,0,0,.76,2.65" fill="none" stroke="#ccd9e8" stroke-linecap="round" stroke-linejoin="round" stroke-width="1.49"/>
        <path d="M63.27,191.34c.57-.15,4.44-.87,7.09.92s4.22,5,5.9,6.11a6.57,6.57,0,0,0,2.3,1.12" fill="none" stroke="#ccd9e8" stroke-linecap="round" stroke-linejoin="round" stroke-width="1.49"/>
        <path d="M77.08,198.27c-.1-.16-2.19-3.52-.61-5.45a8.71,8.71,0,0,1,5.19-2.91,13.37,13.37,0,0,1,1.84.31" fill="none" stroke="#ccd9e8" stroke-linecap="round" stroke-linejoin="round" stroke-width="1.49"/>
        <polyline points="79.63 193.73 80.7 193.73 80.59 192.56" fill="none" stroke="#ccd9e8" stroke-linecap="round" stroke-linejoin="round" stroke-width="1.49"/>
        <path d="M82.79,198.42c0-.2-.41-3.62-1.63-4.43" fill="none" stroke="#ccd9e8" stroke-linecap="round" stroke-linejoin="round" stroke-width="1.49"/>
        <path d="M76.72,200.2a7.61,7.61,0,0,1-.3-1.47" fill="none" stroke="#ccd9e8" stroke-linecap="round" stroke-linejoin="round" stroke-width="1.49"/>
        <path d="M65.52,187.77a3,3,0,0,0,2.44.31c1-.51,1.73-3.31,3.82-4.18s5.76-1.42,7.59-1,3.11.51,3.77,1.43,1.68,1.53,1.33,2.5a20.21,20.21,0,0,0-.67,2.7" fill="none" stroke="#ccd9e8" stroke-linecap="round" stroke-linejoin="round" stroke-width="1.49"/>
        <path d="M70.3,191.65c.11-.16,3.21-4.13,5.35-4.49a23.57,23.57,0,0,1,4.74-.15" fill="none" stroke="#ccd9e8" stroke-linecap="round" stroke-linejoin="round" stroke-width="1.49"/>
        <path d="M61.59,183.49a4.88,4.88,0,0,0,3.57,1.74,30.69,30.69,0,0,0,4.74-.46" fill="none" stroke="#ccd9e8" stroke-linecap="round" stroke-linejoin="round" stroke-width="1.49"/>
        <path d="M85.84,184c-.25.21-2.49,5.25-2.19,7.44s1.94,4.38,4,4.13a14.25,14.25,0,0,0,6.62-2.75,43.57,43.57,0,0,0,3-3.32" fill="none" stroke="#ccd9e8" stroke-linecap="round" stroke-linejoin="round" stroke-width="1.49"/>
        <path d="M91.75,171a7.55,7.55,0,0,0,2,1,2.21,2.21,0,0,0,1.12-.1,17,17,0,0,0-3.57,2.55c-1.58,1.53-3.51,1.68-4.17,4.17s-1,5.1,0,6.12,5.5,2.14,6.92,1.32,3.82-2.6,3.82-2.6" fill="none" stroke="#ccd9e8" stroke-linecap="round" stroke-linejoin="round" stroke-width="1.49"/>
        <path d="M98.22,175.4a52.32,52.32,0,0,1-4.69,4.12c-.86.46-2.85,0-2.85,0" fill="none" stroke="#ccd9e8" stroke-linecap="round" stroke-linejoin="round" stroke-width="1.49"/>
        <path d="M92.51,182.27c0-.15-.45-1.63.16-2.14" fill="none" stroke="#ccd9e8" stroke-linecap="round" stroke-linejoin="round" stroke-width="1.49"/>
        <path d="M87.22,188.64a7.94,7.94,0,0,0,1.58,0l1.88-2.24" fill="none" stroke="#ccd9e8" stroke-linecap="round" stroke-linejoin="round" stroke-width="1.49"/>
        <path d="M88.49,190.27c0-.31,0-1.38,0-1.38" fill="none" stroke="#ccd9e8" stroke-linecap="round" stroke-linejoin="round" stroke-width="1.49"/>
        <path d="M87.42,195.62a30.1,30.1,0,0,0,.26,3.87" fill="none" stroke="#ccd9e8" stroke-linecap="round" stroke-linejoin="round" stroke-width="1.49"/>
        <path d="M92.72,194.09c.15.31,2,4.53,1.53,5.6a18.87,18.87,0,0,1-2.3,3.16l-1.52.36" fill="none" stroke="#ccd9e8" stroke-linecap="round" stroke-linejoin="round" stroke-width="1.49"/>
        <path d="M104.69,133.32c-.31-1.73-2.34-3.87-3.06-5-.47-.75-1.49-1-2.77-1.26a1.27,1.27,0,0,0-.13.9c.31,2,.61,2,2.29,4.74s2.91,5.8,2.75,7.64a2.36,2.36,0,0,0,1.38,2.15,1,1,0,0,0,.46-.32c.51-.71.2-1.32.2-3S105,135.05,104.69,133.32Z" fill="#eaeff5" stroke="#eaeff5" stroke-linecap="round" stroke-linejoin="round" stroke-width="1.49"/>
        <path d="M81,77.08c-.15.76.16,26.13-.15,29.34a119.07,119.07,0,0,0,.31,14.83c.3,3.36,3.66,12.83,4.43,13.29s1.53-8.4,11.61-7.79,8.25,16.35,8.25,16.35" fill="none" stroke="#ccd9e8" stroke-linecap="round" stroke-linejoin="round" stroke-width="1.49"/>
        <path d="M108.05,129c-.79-1.49-3.36-2.6-5.19-2.6-1.48,0-3.45-.29-4,.63,1.28.26,2.3.51,2.77,1.26.72,1.12,2.75,3.26,3.06,5s1.12,4.28,1.12,5.91.31,2.24-.2,3a1,1,0,0,1-.46.32,2.13,2.13,0,0,0,2.9-.93C109.58,139.13,111.52,135.56,108.05,129Z" fill="none" stroke="#e0e8f1" stroke-linecap="round" stroke-linejoin="round" stroke-width="1.49"/>
        <path d="M53.65,162.76a17,17,0,0,1,.61,5.5c0,2.75.2,4.38.1,6.93a43.74,43.74,0,0,0,.51,8.66c.51,3.16,1.22,4.89,1.94,8.25s.1,3.87,1.12,6.63,1.63,3.56,2.54,4,4.59,1.43,4.59,1.43" fill="none" stroke="#e0e8f1" stroke-linecap="round" stroke-linejoin="round" stroke-width="0.37"/>
        <path d="M55.38,166.12c.1,1.74.1,2.86.2,4.89a60.56,60.56,0,0,1,.21,7.34,21,21,0,0,0,.4,6.52c.51,2.65.82,4,1.33,6a19.66,19.66,0,0,1,.81,4.28c.31,2.65.51,3.46,1.43,4.48a5.47,5.47,0,0,0,2,1.73,25.05,25.05,0,0,0,2.75,1.23h1.32" fill="none" stroke="#ccd9e8" stroke-linecap="round" stroke-linejoin="round" stroke-width="0.37"/>
        <path d="M51.71,155.53c1,.41,4.18,2.34,4.18,2.34s2.34,2.65,3.36,3.57,1.94,1.42,3.06,2.34,11.51,4.69,15.08,4.69,13.55-2.35,15.48-4.49,4.18-4.38,5.5-6.11,3.57-3.46,4.79-5.19a24.63,24.63,0,0,0,2.24-4.39s.61-2.85.82-3.26,1-.71,1-.71l-.11,1.94a24.53,24.53,0,0,1-2.24,5.5,54.89,54.89,0,0,1-3.87,5.09c-1.22,1.43-2.55,3.06-3.36,4.08A27,27,0,0,1,93.38,165c-1.12.72-9.07,5.2-16.1,4.79s-14.46-4.79-16-5.7a11.72,11.72,0,0,1-3-2.14c-1-1-2.34-2.75-3.36-3.57a10.17,10.17,0,0,0-2.85-1.73,1.07,1.07,0,0,1-.82-.71Z" fill="none" stroke="#e0e8f1" stroke-linecap="round" stroke-linejoin="round" stroke-width="0.37"/>
        <path d="M103.77,161.34a54.35,54.35,0,0,0-.51,6.82c.11,2.45.11,5,.21,7.13s-.51,3.37-.31,5.1a30.54,30.54,0,0,1,.31,4.79,26.4,26.4,0,0,1-.21,6.21c-.51,3.06-.4,3.77-1,5.5a20.05,20.05,0,0,1-1.63,4,8.51,8.51,0,0,1-3.15,3.56c-1.84,1.22-3.16,2.14-5,1.83a13.46,13.46,0,0,1-3.15-.81,25.24,25.24,0,0,1-3-1.32s-1.22-1.33-1.73-1.94,0-.31-1.12-1.12a4.94,4.94,0,0,0-2.24-.92l-.51.51a5.73,5.73,0,0,1,2.44,1.43c.72.91,2.45,3.16,4.18,3.87s5.5,2.85,8.76.71,5.3-3.87,5.91-5.5a56.2,56.2,0,0,0,2.45-8.66c.1-1.63.2-9.17.2-9.17a45.63,45.63,0,0,1-.51-4.68c0-1.43.51-5.1.51-5.1a30.4,30.4,0,0,1-.2-5c.1-2.85.4-8.76.4-8.76" fill="none" stroke="#e0e8f1" stroke-linecap="round" stroke-linejoin="round" stroke-width="0.37"/>
        <g>
          <path d="M99.49,359.74c-.19-.44-.83-.06-.64.38,1.25,2.92,2.53,5.83,3.74,8.77a33.5,33.5,0,0,1,2.5,8.65c0,.47.8.48.74,0a34.17,34.17,0,0,0-2.52-8.85C102.08,365.69,100.77,362.72,99.49,359.74Z" fill="#ccd9e8" stroke="#ccd9e8" stroke-miterlimit="10" stroke-width="0.5" opacity="0.3"/>
          <path d="M120.37,225.63a4.33,4.33,0,0,1-3.11,1.75h-.44a.7.7,0,0,0-.06-.09.31.31,0,0,0-.52,0,13.12,13.12,0,0,1-2.47-.9,4.75,4.75,0,0,0-3.21-.28c-.36.1-.73.24-1.09.37a.44.44,0,0,0-.2.08,5.66,5.66,0,0,1-1.31.31,8.72,8.72,0,0,1,3.07-2,10.44,10.44,0,0,0,3.41-2,9.24,9.24,0,0,0,2.83-7.65c0-.47-.8-.48-.74,0a8.53,8.53,0,0,1-2.36,6.87,9.3,9.3,0,0,1-3.34,2.09,9.54,9.54,0,0,0-3.14,1.9c-.23.22-.45.46-.66.7h0a.38.38,0,0,0-.47.36l0,.34c-1,1.27-1.69,2.7-2.51,4a10.84,10.84,0,0,1-5.3,5,16.19,16.19,0,0,1-8.84.37c0-.64-.09-1.28-.09-1.93,0-2.74.07-5.46-.16-8.2a56.62,56.62,0,0,0-1.2-7.76,55.72,55.72,0,0,0-2.75-8.71c-.18-.44-.9-.24-.72.2a55.32,55.32,0,0,1,3.88,15.81c.26,2.73.21,5.44.2,8.18a32.54,32.54,0,0,0,.42,5,.07.07,0,0,1,0,.05c.16,1,.34,1.94.55,2.92q.82,3.83,1.64,7.65c-.26-.24-.78-.05-.62.33s.3.73.45,1.1q.77,11.92,1.54,23.87a.4.4,0,0,0-.39.56c.17.36.33.73.49,1.09.08,1.27.17,2.53.25,3.8l1.9,29.48c.16,2.59.25,5.2.54,7.78a13.94,13.94,0,0,0,1,4.07.33.33,0,0,0-.14.4c.13.4.26.81.4,1.22a.35.35,0,0,0-.12.25,65.45,65.45,0,0,1-1.53,11.66c-.82,3.62-2.21,7.23-1.7,11,.06.48.78.27.71-.2-.51-3.82,1.07-7.61,1.86-11.29A65.64,65.64,0,0,0,97.46,327a71.63,71.63,0,0,1,.16,23.78.41.41,0,0,0,.37.46,143.64,143.64,0,0,0-.24,22.34,2.08,2.08,0,0,0-.38,1.43c0,.33,0,.66,0,1a51.73,51.73,0,0,0-.82,5.81c-.2,2.4-.12,4.8-.21,7.21a42.46,42.46,0,0,1-1.17,7.25c-.55,2.5-1.09,5-1.64,7.5-.1.47.61.67.72.2q.81-3.75,1.64-7.51a43,43,0,0,0,1.17-7c.13-2.4,0-4.81.2-7.21.06-.9.16-1.79.27-2.68.15,2.75.33,5.5.56,8.25s.5,5.7.82,8.54c.15,1.38.32,2.76.49,4.14a11.65,11.65,0,0,1,.11,4.12,29.46,29.46,0,0,1-1.65,3.89,20.12,20.12,0,0,0-1.19,4.33c-.08.46.64.67.72.19a19.48,19.48,0,0,1,.91-3.59c.42-1.18,1-2.27,1.51-3.42a7.19,7.19,0,0,0,.3-.85,39.13,39.13,0,0,0,2,7.28c.16.45.88.25.71-.2a39.55,39.55,0,0,1-2.31-10,.39.39,0,0,0-.14-.26c-.08-1-.25-2-.37-3q-1-8-1.48-16c-.09-1.47-.17-2.94-.25-4.41,0-.77-.07-1.55-.1-2.33,0,0,0-.07,0-.15.09-.42.17-.84.26-1.26a.37.37,0,0,0-.26-.44,1,1,0,0,1,0-.19l.1,0a.37.37,0,0,0,.19-.69A142.72,142.72,0,0,1,98.85,350a.31.31,0,0,0-.31-.35,72.94,72.94,0,0,0-.17-21.73c2.79,8.4,5.59,16.85,7.06,25.59.5,3,.85,6,1.08,9,0,.48.78.48.74,0a98.86,98.86,0,0,0-2.45-15.86c-1.25-5.19-2.91-10.27-4.57-15.34l-2.34-7.2c.3.36.82-.16.52-.53a10.93,10.93,0,0,1-1.93-5.75c-.23-2.24-.32-4.49-.46-6.74l-.93-14.49L94,279.07c3.32,7.58,6.34,15.38,6.63,23.74.16,4.67-.11,9.31,1,13.89a115.84,115.84,0,0,0,4.13,11.83c1.6,4.33,2.89,8.86,2.39,13.51,0,.48.69.48.74,0,.91-8.47-3.82-16.09-6.12-24a32.54,32.54,0,0,1-1.23-6.57c-.18-2.49-.12-5-.16-7.5a49.35,49.35,0,0,0-2.27-13.75,121.24,121.24,0,0,0-5.28-13.34l-.6-9.29q-.45-6.93-.89-13.88A173.74,173.74,0,0,1,99,274.18q1.57,6.12,2.7,12.34c.75,4.17,1.35,8.38,2.47,12.48a58,58,0,0,0,5.07,12.56c.23.43.87.05.64-.37A57.59,57.59,0,0,1,105.2,300a106.85,106.85,0,0,1-2.58-12.39,174.7,174.7,0,0,0-6-24.18c-1.24-3.8-2.63-7.55-4.13-11.25a.38.38,0,0,0,.24-.43l-1.8-8.39q-.27-1.23-.51-2.46c3,4.21,3.61,9.65,6,14.16,1.47,2.69,3.7,4.72,5.76,6.94a29.25,29.25,0,0,1,5.11,7.76,65.31,65.31,0,0,1,3.49,10.05.37.37,0,0,0,.72-.2c-1.66-5.95-3.67-12-7.66-16.86-2-2.47-4.61-4.49-6.3-7.25a39.33,39.33,0,0,1-3.3-8,24.66,24.66,0,0,0-4.15-8.19Q90,238.66,90,238a13.17,13.17,0,0,1,5,2.75c1.53,1.37,2.88,3,4.28,4.45,2.82,3,5.75,5.93,8.41,9.07a26.78,26.78,0,0,1,3.67,5.4c.22.43.86.05.65-.38-1.78-3.55-4.53-6.46-7.23-9.33L100.06,245c-1.47-1.56-2.88-3.21-4.45-4.66A14,14,0,0,0,92,238a16.16,16.16,0,0,0,5.84-.38,10.47,10.47,0,0,0,5.9-4.24c1.1-1.58,1.93-3.35,3-4.94a.39.39,0,0,0,.45-.35l0-.29.12-.14a4.76,4.76,0,0,0,2.07-.32c2.27,2.17,2.15,5.7,1.58,8.56-.7,3.53-2.07,7.27-.65,10.81.18.44.9.25.72-.2-1.52-3.78.29-7.69.83-11.47.4-2.73.27-5.87-1.69-8l.21-.06a3.77,3.77,0,0,1,2.15-.19,12.4,12.4,0,0,1,2,.79,6.57,6.57,0,0,0,1.84.51c1.16,1.66,1.12,3.93,1.28,5.87a29.59,29.59,0,0,1,.11,6.91c-.63,3.95-2.41,8.28-.17,12.06a.37.37,0,0,0,.64-.38c-2.38-4,.11-8.75.42-13a45,45,0,0,0-.37-7.05,11,11,0,0,0-1-4.43,5.62,5.62,0,0,0,.78-.11,5.08,5.08,0,0,0,2.94-2C121.3,225.61,120.65,225.24,120.37,225.63Z" fill="#ccd9e8" stroke="#ccd9e8" stroke-miterlimit="10" stroke-width="0.5" opacity="0.3"/>
        </g>
        <g>
          <path d="M60.82,359.74c.19-.44.83-.06.65.38-1.25,2.92-2.54,5.83-3.74,8.77a33.11,33.11,0,0,0-2.5,8.65c-.06.47-.81.48-.75,0A34.2,34.2,0,0,1,57,368.69C58.24,365.69,59.55,362.72,60.82,359.74Z" fill="#ccd9e8" stroke="#ccd9e8" stroke-miterlimit="10" stroke-width="0.5" opacity="0.3"/>
          <path d="M39.94,225.63a4.33,4.33,0,0,0,3.11,1.75h.44s0-.07.07-.09a.3.3,0,0,1,.51,0,12.63,12.63,0,0,0,2.47-.9,4.77,4.77,0,0,1,3.22-.28c.36.1.72.24,1.09.37a.5.5,0,0,1,.2.08,5.54,5.54,0,0,0,1.31.31,8.68,8.68,0,0,0-3.08-2,10.54,10.54,0,0,1-3.41-2A9.27,9.27,0,0,1,43,215.24c.06-.47.8-.48.75,0a8.49,8.49,0,0,0,2.36,6.87,9.26,9.26,0,0,0,3.33,2.09,9.34,9.34,0,0,1,3.14,1.9,8.69,8.69,0,0,1,.66.7h.06a.38.38,0,0,1,.47.36l0,.34a46.89,46.89,0,0,1,2.5,4,10.91,10.91,0,0,0,5.31,5,16.16,16.16,0,0,0,8.83.37c.06-.64.09-1.28.1-1.93,0-2.74-.07-5.46.16-8.2A55.1,55.1,0,0,1,71.93,219a56.81,56.81,0,0,1,2.75-8.71c.18-.44.9-.24.72.2a55.65,55.65,0,0,0-3.88,15.81c-.25,2.73-.2,5.44-.2,8.18a31.35,31.35,0,0,1-.42,5,.11.11,0,0,1,0,.05c-.15,1-.34,1.94-.55,2.92q-.81,3.83-1.64,7.65c.26-.24.78-.05.62.33l-.45,1.1-1.53,23.87a.4.4,0,0,1,.38.56l-.49,1.09L67,280.9l-1.9,29.48c-.17,2.59-.25,5.2-.54,7.78a14,14,0,0,1-1,4.07.32.32,0,0,1,.15.4c-.13.4-.27.81-.4,1.22a.34.34,0,0,1,.11.25A65.47,65.47,0,0,0,65,335.76c.81,3.62,2.21,7.23,1.7,11-.06.48-.78.27-.72-.2.52-3.82-1.07-7.61-1.86-11.29A67.53,67.53,0,0,1,62.85,327a71.9,71.9,0,0,0-.16,23.78.4.4,0,0,1-.37.46,142.42,142.42,0,0,1,.24,22.34,2,2,0,0,1,.38,1.43c0,.33,0,.66,0,1a51.73,51.73,0,0,1,.82,5.81c.2,2.4.12,4.8.21,7.21a40.58,40.58,0,0,0,1.17,7.25q.81,3.75,1.64,7.5c.1.47-.62.67-.72.2q-.83-3.75-1.64-7.51a43.07,43.07,0,0,1-1.18-7c-.12-2.4,0-4.81-.19-7.21-.07-.9-.16-1.79-.28-2.68-.14,2.75-.33,5.5-.55,8.25s-.51,5.7-.82,8.54c-.16,1.38-.32,2.76-.49,4.14a11.65,11.65,0,0,0-.11,4.12,27,27,0,0,0,1.65,3.89,20.12,20.12,0,0,1,1.19,4.33c.07.46-.64.67-.72.19a21.22,21.22,0,0,0-.91-3.59c-.43-1.18-1-2.27-1.52-3.42a7.11,7.11,0,0,1-.29-.85,39.92,39.92,0,0,1-1.95,7.28c-.17.45-.89.25-.72-.2a39.57,39.57,0,0,0,2.32-10,.38.38,0,0,1,.13-.26c.08-1,.25-2,.37-3q1-8,1.48-16c.1-1.47.18-2.94.25-4.41,0-.77.08-1.55.11-2.33v-.15c-.08-.42-.16-.84-.26-1.26a.37.37,0,0,1,.26-.44.54.54,0,0,0,0-.19l-.1,0a.37.37,0,0,1-.19-.69A142.71,142.71,0,0,0,61.47,350a.3.3,0,0,1,.3-.35A72.61,72.61,0,0,1,62,327.93c-2.8,8.4-5.6,16.85-7.06,25.59q-.75,4.49-1.08,9c0,.48-.78.48-.75,0a100,100,0,0,1,2.46-15.86c1.24-5.19,2.91-10.27,4.56-15.34q1.17-3.6,2.35-7.2c-.3.36-.82-.16-.53-.53a10.94,10.94,0,0,0,1.94-5.75c.22-2.24.31-4.49.46-6.74l.93-14.49,1.13-17.56C63,286.65,60,294.45,59.72,302.81c-.16,4.67.11,9.31-1,13.89a115.9,115.9,0,0,1-4.14,11.83c-1.59,4.33-2.88,8.86-2.38,13.51,0,.48-.7.48-.75,0-.91-8.47,3.82-16.09,6.12-24a31.86,31.86,0,0,0,1.23-6.57c.19-2.49.12-5,.17-7.5a49,49,0,0,1,2.27-13.75,121.24,121.24,0,0,1,5.28-13.34l.6-9.29q.44-6.93.89-13.88a173.79,173.79,0,0,0-6.65,20.42q-1.58,6.12-2.69,12.34c-.76,4.17-1.35,8.38-2.47,12.48a58.48,58.48,0,0,1-5.07,12.56c-.23.43-.87.05-.64-.37A58.21,58.21,0,0,0,55.12,300a109,109,0,0,0,2.58-12.39,173.25,173.25,0,0,1,6-24.18q1.88-5.7,4.13-11.25a.37.37,0,0,1-.23-.43l1.8-8.39c.17-.82.35-1.64.5-2.46-3,4.21-3.6,9.65-6.05,14.16-1.46,2.69-3.7,4.72-5.76,6.94A29.74,29.74,0,0,0,53,269.76a66.39,66.39,0,0,0-3.49,10.05.37.37,0,0,1-.72-.2c1.66-5.95,3.67-12,7.67-16.86,2-2.47,4.61-4.49,6.3-7.25a39.29,39.29,0,0,0,3.29-8,24.85,24.85,0,0,1,4.15-8.19c.07-.44.13-.88.19-1.32a13.17,13.17,0,0,0-5,2.75c-1.53,1.37-2.88,3-4.29,4.45-2.82,3-5.75,5.93-8.41,9.07a27.2,27.2,0,0,0-3.67,5.4c-.21.43-.86.05-.64-.38,1.78-3.55,4.53-6.46,7.22-9.33L60.26,245c1.47-1.56,2.88-3.21,4.45-4.66A14,14,0,0,1,68.35,238a16.17,16.17,0,0,1-5.84-.38,10.41,10.41,0,0,1-5.89-4.24c-1.11-1.58-1.94-3.35-3-4.94a.38.38,0,0,1-.44-.35l0-.29a1.49,1.49,0,0,0-.12-.14,4.78,4.78,0,0,1-2.07-.32c-2.26,2.17-2.14,5.7-1.58,8.56.7,3.53,2.08,7.27.65,10.81-.18.44-.9.25-.72-.2,1.52-3.78-.28-7.69-.83-11.47-.39-2.73-.27-5.87,1.69-8l-.2-.06a3.8,3.8,0,0,0-2.16-.19,12.4,12.4,0,0,0-2.05.79,6.48,6.48,0,0,1-1.84.51c-1.15,1.66-1.12,3.93-1.27,5.87a29.05,29.05,0,0,0-.11,6.91c.62,3.95,2.4,8.28.17,12.06a.38.38,0,0,1-.65-.38c2.39-4-.1-8.75-.42-13a46.22,46.22,0,0,1,.38-7.05,10.79,10.79,0,0,1,1-4.43,5.23,5.23,0,0,1-.78-.11,5.08,5.08,0,0,1-2.94-2C39,225.61,39.66,225.24,39.94,225.63Z" fill="#ccd9e8" stroke="#ccd9e8" stroke-miterlimit="10" stroke-width="0.5" opacity="0.3"/>
        </g>
        <g>
          <path d="M69.86,48.66a1.22,1.22,0,0,0,0,.57,1.17,1.17,0,0,0,.79.9.39.39,0,0,0,.46-.26,2.18,2.18,0,0,0,0-.51.35.35,0,0,0,0-.28l0,0a1.56,1.56,0,0,0-.27-.51.39.39,0,0,0,0-.45.4.4,0,0,0-.53,0s0,0,0,0a.41.41,0,0,0-.26.11.39.39,0,0,0-.06.45Z" fill="#ccd9e8" stroke="#ccd9e8" stroke-miterlimit="10" stroke-width="0.5" opacity="0.3"/>
          <path d="M71.93,56.4a.39.39,0,0,0,.46.26.38.38,0,0,0,.26-.46,3.55,3.55,0,0,1,.13-1.52.67.67,0,0,0,.41.08.67.67,0,0,0,.28-.19l0,0A.37.37,0,0,0,73.8,54a1.56,1.56,0,0,0,0-.61,1.87,1.87,0,0,0-.07-.22,3,3,0,0,1,.59-.48c.41-.26,0-.9-.38-.65a4.54,4.54,0,0,0-.68.55l0,0a.28.28,0,0,0,0-.16.38.38,0,0,0-.51-.14,1.4,1.4,0,0,0-.46,1.89A4.48,4.48,0,0,0,71.93,56.4Zm1.52-2.59h0s0,0,0,0Z" fill="#ccd9e8" stroke="#ccd9e8" stroke-miterlimit="10" stroke-width="0.5" opacity="0.3"/>
          <path d="M79.37,171.21c0,1.16-.06,2.31-.1,3.47A15.09,15.09,0,0,1,79,177.9c-.23.94-.93,2-2,2s-1.65-1-2.13-1.76a.36.36,0,0,0-.42-.17l-5.68,2.32c-.89.37-1.79.75-2.69,1.11a3.08,3.08,0,0,1-2.83-.12c-2.68-1.38-4.94-4-8.22-3.69-3.08.3-5.92,2.77-7.64,5.21A7.16,7.16,0,0,0,46,187a7.65,7.65,0,0,0,1.4,4.2A11.78,11.78,0,0,0,51,194.45c1.19.75,3.13,1.86,2.8,3.54-.1.47.62.67.72.2.56-2.84-3-4-4.71-5.47-2.44-2-3.91-5.3-2.45-8.34a12.13,12.13,0,0,1,3.14-3.77A8.7,8.7,0,0,1,55,178.34c3.22-.34,5.44,2.48,8.12,3.73a3.41,3.41,0,0,0,2.52.28c1-.29,1.91-.76,2.85-1.14l5.89-2.42a6.58,6.58,0,0,0,.73.94,32,32,0,0,0-1.62,6.17,30,30,0,0,0-.33,3c-.06.83,0,2-.79,2.52-.4.25,0,.89.38.64a2.46,2.46,0,0,0,1.06-1.9c.14-1.08.14-2.18.28-3.27a31.13,31.13,0,0,1,1.63-6.64,2.47,2.47,0,0,0,.79.36,2.59,2.59,0,0,0,2.61-1.16A6.06,6.06,0,0,0,80,176c0-1.6.09-3.21.14-4.81A.38.38,0,0,0,79.37,171.21Z" fill="#ccd9e8" stroke="#ccd9e8" stroke-miterlimit="10" stroke-width="0.5" opacity="0.3"/>
          <path d="M91,49.87a.39.39,0,0,0,.46.26,1.17,1.17,0,0,0,.79-.9,1.37,1.37,0,0,0,0-.57h0a.38.38,0,0,0-.06-.45.39.39,0,0,0-.26-.11l0,0a.38.38,0,0,0-.52,0,.38.38,0,0,0-.06.45A1.56,1.56,0,0,0,91,49l0,0a.31.31,0,0,0,0,.28A1.74,1.74,0,0,0,91,49.87Z" fill="#ccd9e8" stroke="#ccd9e8" stroke-miterlimit="10" stroke-width="0.5" opacity="0.3"/>
          <path d="M87.76,52.66a3,3,0,0,1,.59.48,1.87,1.87,0,0,0-.07.22,1.56,1.56,0,0,0,0,.61.44.44,0,0,0-.1.24.39.39,0,0,0,.38.38l0,0a.73.73,0,0,0,.28.19.67.67,0,0,0,.41-.08,3.55,3.55,0,0,1,.13,1.52.37.37,0,1,0,.72.2,4.48,4.48,0,0,0-.28-2.27,1.39,1.39,0,0,0-.46-1.89.38.38,0,0,0-.51.14.38.38,0,0,0-.05.16l0,0a4.54,4.54,0,0,0-.68-.55C87.73,51.76,87.35,52.4,87.76,52.66Zm.87,1.15h0s0,0,0,0Z" fill="#ccd9e8" stroke="#ccd9e8" stroke-miterlimit="10" stroke-width="0.5" opacity="0.3"/>
          <path d="M149.26,166.75a20.42,20.42,0,0,0-3.84-10.24,21.15,21.15,0,0,1-1.95-2.49,9.06,9.06,0,0,1-.92-3.05c-.09-.6-.16-1.2-.2-1.81a40.73,40.73,0,0,0,.22-4.68v-.1c0-.16.05-.33.08-.5a.34.34,0,0,0-.12-.34,25.54,25.54,0,0,0-1.48-6.9c-.89-2.48-2-4.88-3-7.34a71.59,71.59,0,0,1-4.69-29.75l1.09,2a55.8,55.8,0,0,1,3.3,7,36.09,36.09,0,0,1,1.73,7.32c.68,5,.8,10,2.43,14.82.15.45.87.25.72-.2-1.9-5.57-1.74-11.52-2.83-17.25-1-5.18-3.44-9.74-5.93-14.32-.14-.26-.28-.51-.41-.77,0-.29,0-.59.06-.88s-.45-.46-.66-.21l-3.06-5.64a39.22,39.22,0,0,0-3.7-6.12,10.42,10.42,0,0,0-5.3-3.53l-.29-.07a33.88,33.88,0,0,1-.13-3.65,11.35,11.35,0,0,0-.57-4c.88.19,1.77.33,2.64.5a31.17,31.17,0,0,1,4.85,1.27,12,12,0,0,1,7,6.42,32.91,32.91,0,0,1,2.26,9.28c.06.47.78.27.71-.2-.48-3.44-1-7-2.65-10.12a12.59,12.59,0,0,0-6.74-6,28.78,28.78,0,0,0-4.83-1.33c-1.2-.24-2.44-.41-3.64-.71a4,4,0,0,0-.23-.39.39.39,0,0,0-.69.12l-.3-.09a5.66,5.66,0,0,1-2.32-1.46,21.44,21.44,0,0,0-1.69-1.87,9.65,9.65,0,0,0-4.15-1.79c-2.64-.6-6.58-1.07-7.36-4.25-.12-.46-.83-.26-.72.2.82,3.33,4.65,4.07,7.51,4.69A8.88,8.88,0,0,1,114,70.28c.67.64,1.15,1.45,1.86,2a6.64,6.64,0,0,0,1.83,1.08q.63.24,1.29.42a6.5,6.5,0,0,1,.6,2c.29,1.9,0,3.83.22,5.74a47.29,47.29,0,0,0-5.45-.59,29.1,29.1,0,0,1-3.08-.38l-.22-.33a.39.39,0,0,0-.7.13,11.39,11.39,0,0,1-2.62-1c-1.86-1-3.89-2.58-6.11-1.83a.39.39,0,0,0-.17.13,5.65,5.65,0,0,1-1.53,0,3.06,3.06,0,0,0-.24-2.4A2.69,2.69,0,0,0,98,74.05a7.05,7.05,0,0,1-2.1-1,9.3,9.3,0,0,1-2.8-3.78c-.33-.77-1.66-3.6-.34-4.08a.38.38,0,0,0,.26-.46l-1.37-4.83a7.92,7.92,0,0,1-.55-2.38,3,3,0,0,1,1.07-1.81,12.41,12.41,0,0,0,2.37-3.4.34.34,0,0,0,.25-.24q.15-.54.27-1.08a11,11,0,0,0,.48-2.32.29.29,0,0,0-.14-.3,16.41,16.41,0,0,0-.52-5,.37.37,0,0,0-.72.19c0,.16.07.32.11.48a.32.32,0,0,0-.19-.15.38.38,0,0,0-.37.09c-.06.07-.1.14-.15.21a.36.36,0,0,0-.48.14.42.42,0,0,0,0,.29l0,.21a.08.08,0,0,0,0,0v.06a2.53,2.53,0,0,0-.12.36.37.37,0,0,0-.21.43.37.37,0,0,0,.08.15s0,0,0,.06a.38.38,0,0,0,.27.36.38.38,0,0,0,.42-.17,1.68,1.68,0,0,0,.16-.33l.09,0,.26-.11a.44.44,0,0,0,.27-.19.87.87,0,0,0,.07-.17,1.76,1.76,0,0,0,.07-.4,15.8,15.8,0,0,1-.19,6.24A10.32,10.32,0,0,1,93.41,53c-.06.1-.13.19-.19.28V47.74a.38.38,0,0,0-.75,0v6.42s0,.06,0,.08c-.14.18-.28.35-.43.52a10.67,10.67,0,0,0-1.19,1.33c-.87,1.28-.3,2.64.08,4l1.29,4.54c-.91.61-.8,2-.51,2.94a13.46,13.46,0,0,0,2.07,4.36,7.49,7.49,0,0,0,3.54,2.69c1,.33,1.73.6,1.91,1.72a3,3,0,0,1-.1,1.24,1.79,1.79,0,0,0-1.29.48c-.53.53-.61,1.38-1,2a3.87,3.87,0,0,1-1.94,1.39c-.73.23-1.52.14-2.14.65s-.93,1.2-1.49,1.71c-1.18,1.09-3.3,1.62-4.37.07-.27-.39-.92,0-.65.37a3.34,3.34,0,0,0,4,1.1A5.22,5.22,0,0,0,92.1,84s0,0,0,.07l1.59,2.51c.51.8,1.22,1.63,1.09,2.63a13.89,13.89,0,0,1-1,2.85c-.25.65-.49,1.3-.73,1.95h0a.38.38,0,0,0-.36-.27c-1.81,0-3.62-.13-5.43-.25A.32.32,0,0,0,87,93.4l-.09,0h-.16a.35.35,0,0,0-.32-.22h-.36a66.82,66.82,0,0,0,0-9.7c0-.47-.77-.47-.74,0a66.37,66.37,0,0,1-.07,10.07.38.38,0,0,0,.37.37h.13a.36.36,0,0,0,.15.15A4,4,0,0,0,85,96.34c-.19,1.54.38,3.22-.4,4.64a.37.37,0,0,0,.13.51l.7.4a.35.35,0,0,0,.36.36,19.76,19.76,0,0,1,5.46.86l.31,1.72.16.89a5.43,5.43,0,0,1,.16.88c0,.31-.21.44-.41.63l-.69.66-1.29,1.23a.34.34,0,0,0-.14,0,5.36,5.36,0,0,1-4.8-.87.4.4,0,0,0-.49,0,4.28,4.28,0,0,0,0-.62,5.56,5.56,0,0,0-.24-1.16c-.13-.37-.32-.71-.47-1.08-.55-1.4,1.2-2.13,2.26-2.45a.37.37,0,0,0-.2-.72c-1.19.37-2.83,1.08-2.92,2.53,0,.85.57,1.6.75,2.41a4.72,4.72,0,0,1-.26,2.75.25.25,0,0,0,0,.17l-.71.5A3.06,3.06,0,0,0,81,112.46a3.06,3.06,0,0,0-1.24-1.87l-.71-.5a.25.25,0,0,0,0-.17,4.72,4.72,0,0,1-.26-2.75c.19-.81.8-1.56.75-2.41-.09-1.45-1.73-2.16-2.92-2.53a.37.37,0,0,0-.2.72c1.06.32,2.81,1,2.26,2.45-.14.37-.34.71-.47,1.08a5.56,5.56,0,0,0-.24,1.16,4.28,4.28,0,0,0,0,.62.4.4,0,0,0-.49,0,5.36,5.36,0,0,1-4.8.87.34.34,0,0,0-.14,0l-1.29-1.23-.69-.66c-.2-.19-.41-.32-.41-.63a6.78,6.78,0,0,1,.16-.88c0-.3.1-.59.16-.89.1-.57.2-1.15.31-1.72a19.82,19.82,0,0,1,5.46-.86.35.35,0,0,0,.36-.36l.7-.4a.37.37,0,0,0,.13-.51c-.78-1.42-.21-3.1-.39-4.64a4,4,0,0,0-.93-2.25.36.36,0,0,0,.15-.15h.13a.38.38,0,0,0,.37-.37,67.69,67.69,0,0,1-.07-10.07c0-.47-.71-.47-.74,0a68.27,68.27,0,0,0,0,9.7h-.36a.36.36,0,0,0-.32.22h-.16l-.08,0a.34.34,0,0,0-.33.06c-1.8.12-3.61.21-5.43.25A.38.38,0,0,0,69,94h0L68.24,92a13.29,13.29,0,0,1-1-2.85c-.14-1,.57-1.83,1.08-2.63L70,84.05s0,0,0-.07a5.17,5.17,0,0,0,1.92,1.34,3.33,3.33,0,0,0,4-1.1c.27-.39-.37-.76-.65-.37-1.07,1.55-3.18,1-4.37-.07-.56-.51-.9-1.23-1.49-1.71s-1.41-.42-2.14-.65A3.81,3.81,0,0,1,65.28,80c-.45-.6-.53-1.45-1.06-2a1.78,1.78,0,0,0-1.28-.48,2.74,2.74,0,0,1-.1-1.24c.17-1.12,1-1.39,1.9-1.72a7.49,7.49,0,0,0,3.54-2.69,13.69,13.69,0,0,0,2.08-4.36c.28-1,.4-2.33-.52-2.94l1.29-4.54c.38-1.35,1-2.71.08-4A10.67,10.67,0,0,0,70,54.76c-.15-.17-.29-.34-.43-.52a.19.19,0,0,0,0-.08V47.74a.38.38,0,0,0-.75,0v5.51c-.06-.09-.13-.18-.19-.28a11,11,0,0,1-.87-1.88,15.62,15.62,0,0,1-.18-6.24,1.34,1.34,0,0,0,.06.4.87.87,0,0,0,.07.17.44.44,0,0,0,.27.19l.26.11.09,0a2.53,2.53,0,0,0,.16.33.38.38,0,0,0,.42.17.38.38,0,0,0,.27-.36s0,0,0-.06a.6.6,0,0,0,.09-.15.38.38,0,0,0-.22-.43,2.53,2.53,0,0,0-.12-.36v-.06a.08.08,0,0,0,0,0l0-.21a.42.42,0,0,0,0-.29.44.44,0,0,0-.23-.17.39.39,0,0,0-.24,0l-.16-.21a.37.37,0,0,0-.36-.09.31.31,0,0,0-.2.15c0-.16.07-.32.11-.48a.37.37,0,0,0-.72-.19,16.41,16.41,0,0,0-.51,5,.3.3,0,0,0-.15.3A11.64,11.64,0,0,0,67,51q.12.54.27,1.08a.34.34,0,0,0,.25.24,12.63,12.63,0,0,0,2.37,3.4A3,3,0,0,1,71,57.5a7.92,7.92,0,0,1-.55,2.38C70,61.49,69.5,63.1,69,64.71a.38.38,0,0,0,.26.46c1.32.48,0,3.31-.34,4.08A9.3,9.3,0,0,1,66.16,73a7.05,7.05,0,0,1-2.1,1,2.69,2.69,0,0,0-1.62,1.17,3.11,3.11,0,0,0-.24,2.4,5.64,5.64,0,0,1-1.53,0,.39.39,0,0,0-.17-.13c-2.22-.75-4.25.83-6.1,1.83a11.64,11.64,0,0,1-2.63,1,.39.39,0,0,0-.7-.13l-.22.33a29.1,29.1,0,0,1-3.08.38,46.88,46.88,0,0,0-5.44.59c.18-1.91-.08-3.84.21-5.74a6.5,6.5,0,0,1,.6-2q.66-.18,1.29-.42a6.5,6.5,0,0,0,1.83-1.08c.71-.6,1.19-1.41,1.86-2a8.91,8.91,0,0,1,4.48-1.93c2.85-.62,6.68-1.36,7.5-4.69.11-.46-.6-.66-.72-.2-.78,3.18-4.71,3.65-7.36,4.25a9.65,9.65,0,0,0-4.15,1.79,21.44,21.44,0,0,0-1.69,1.87,5.66,5.66,0,0,1-2.32,1.46l-.29.09a.39.39,0,0,0-.7-.12l-.23.39c-1.2.3-2.44.47-3.64.71a28.78,28.78,0,0,0-4.83,1.33,12.59,12.59,0,0,0-6.74,6c-1.62,3.13-2.17,6.68-2.65,10.12-.07.47.65.67.72.2a32.56,32.56,0,0,1,2.25-9.28,12,12,0,0,1,7-6.42,31.17,31.17,0,0,1,4.85-1.27c.88-.17,1.77-.31,2.64-.5a11.35,11.35,0,0,0-.57,4,33.88,33.88,0,0,1-.13,3.65l-.28.07a10.41,10.41,0,0,0-5.31,3.53,39.22,39.22,0,0,0-3.7,6.12l-3.06,5.64c-.2-.25-.69-.18-.66.21s0,.59.07.88l-.42.77c-2.49,4.58-4.94,9.14-5.93,14.32-1.09,5.73-.93,11.68-2.83,17.25-.15.45.57.65.72.2,1.63-4.78,1.75-9.86,2.44-14.82a34.81,34.81,0,0,1,1.73-7.32,55.74,55.74,0,0,1,3.29-7l1.09-2A71.59,71.59,0,0,1,24,129.3c-.95,2.46-2.07,4.86-3,7.34a25.54,25.54,0,0,0-1.48,6.9.34.34,0,0,0-.12.34c0,.17.06.34.08.5v.1a40.73,40.73,0,0,0,.22,4.68c0,.61-.11,1.21-.2,1.81a9.06,9.06,0,0,1-.92,3.05,21.15,21.15,0,0,1-1.95,2.49,20.42,20.42,0,0,0-3.84,10.24,39.42,39.42,0,0,0-.17,6.61c0,.47.77.48.75,0a30.48,30.48,0,0,1,1.3-11.63,16.4,16.4,0,0,1,2.83-5.13,13.72,13.72,0,0,0,1.83-2.4,8.38,8.38,0,0,0,.69-2c0,.26.05.53.08.79a42.13,42.13,0,0,1,.11,8.25c-.61,6.26-2.68,12.28-4.92,18.11-.17.45.55.65.72.2a77.16,77.16,0,0,0,4.66-16,38.92,38.92,0,0,0,.38-8.14c-.13-2.1-.41-4.18-.61-6.28a21.93,21.93,0,0,0-.2-4.65,22.89,22.89,0,0,1,.92-5.9A80.11,80.11,0,0,1,24.12,131a72,72,0,0,0,4.44-15.58,72.17,72.17,0,0,0,.78-17.06c.68-1.24,1.35-2.49,2-3.74,1.23-2.26,2.39-4.58,3.73-6.78a11.62,11.62,0,0,1,4.67-4.68,10,10,0,0,1,1.65-.62A9.57,9.57,0,0,1,41,84a36.07,36.07,0,0,1-2.83,5.49,29.09,29.09,0,0,0-2.47,5.87,78.26,78.26,0,0,0-2.34,12.9c-.63,4.79-1.22,9.59-1.44,14.41-.11,2.39-.13,4.77,0,7.16s.43,4.8.73,7.19a52.55,52.55,0,0,1,.47,7.09c0,2.43-.23,4.86-.48,7.27a93.3,93.3,0,0,1-2.17,13.92,54.14,54.14,0,0,1-4.63,11.26c-3.54,6.72-7.87,13.36-9.1,21a26,26,0,0,0-.3,2.78c0,.48.71.48.74,0,.46-7.82,4.59-14.69,8.24-21.41a71.14,71.14,0,0,0,4.89-10.51A62.71,62.71,0,0,0,33,155.13a80.41,80.41,0,0,0,.82-14.2c-.14-2.36-.51-4.69-.78-7a65.09,65.09,0,0,1-.42-7.12,114.16,114.16,0,0,1,1-14.31c.55-4.52,1-9.09,2-13.54a40.65,40.65,0,0,1,1.21-4.45,6.77,6.77,0,0,0,3.33,5.07c-1,.79-2.19,1.71-2.4,3a2.69,2.69,0,0,0,.48,1.84c.16.28.49.84.17,1.13a3.74,3.74,0,0,1-.45-.12,1.76,1.76,0,0,1-.09-.73c.07-.47-.65-.67-.72-.19a2.89,2.89,0,0,0,0,.72c-.25.11-.37.54-.06.67l.09,0h0a.39.39,0,0,1,.25.3.36.36,0,0,0,.59.17.88.88,0,0,0,.62,0l.42,0a1.19,1.19,0,0,0,.33,1.47c.25.18.54-.07.56-.33v-.16a4.9,4.9,0,0,1,.17,4,.37.37,0,0,0,.71.2c.11-.45.9-.36,1,.08s.71.3.73-.1a1,1,0,0,1,.3-.65,5.18,5.18,0,0,0,.4.41.36.36,0,0,0,.41.35,10.9,10.9,0,0,1,1.15,1l0,0a.32.32,0,0,0,.15.43l.2.09a1.07,1.07,0,0,1,.1.5,2.66,2.66,0,0,1-.86,1.44A6.06,6.06,0,0,0,43,118.24c-.07.47.65.67.72.19a5.41,5.41,0,0,1,1.19-2.75,3.15,3.15,0,0,0,1.08-2.1,9.44,9.44,0,0,0,2.8.58c.47,0,.47-.72,0-.74a8.49,8.49,0,0,1-3.1-.78,4.18,4.18,0,0,0-.81-.92c-.3-.26-.62-.5-.92-.76v-.74a.38.38,0,0,0-.2-.32.32.32,0,0,0-.09-.36.69.69,0,0,0-1,0,.74.74,0,0,0-.18.64,1.69,1.69,0,0,0-.44.52,1.44,1.44,0,0,0-.91-.18,5.64,5.64,0,0,0-.88-4.17c.37-.06.51-.65.07-.73h-.13a.89.89,0,0,0-.23,0,6.49,6.49,0,0,1-.76,0,1.16,1.16,0,0,0,.07-.31c.09-1.06-1-1.76-.74-2.83s1.61-2,2.52-2.71c.19-.15.29-.52,0-.65a6,6,0,0,1-3.33-6.94v0c.8-1.78,1.83-3.43,2.76-5.14a15.45,15.45,0,0,0,1.79-4.72,28,28,0,0,1,4-.5c1.35-.11,2.72-.19,4.06-.39-2.06,3-4.14,6.1-6.17,9.17a22.52,22.52,0,0,0-2.53,4.71,3.52,3.52,0,0,0-.35,2.13.83.83,0,0,0,1,.66.37.37,0,0,0-.2-.72c-.37.11.18-1.71.24-1.87a15.31,15.31,0,0,1,1-2.14c.76-1.39,1.66-2.69,2.54-4l5.49-8.13a13.51,13.51,0,0,0,2-.55A24.89,24.89,0,0,0,56.56,79a4.81,4.81,0,0,1,3.53-.79.35.35,0,0,0,.19.14,5.76,5.76,0,0,0,2.15,0,13.36,13.36,0,0,0,.66,1.37c.23.42.87,0,.65-.37s-.35-.65-.51-1a1,1,0,0,1,.46.22,3.89,3.89,0,0,1,.57,1.22,4.68,4.68,0,0,0,3.59,2.52,1.87,1.87,0,0,1,1.44.79l.31.41a.36.36,0,0,0-.29.17L67.6,86.36a6.78,6.78,0,0,0-1,1.94,4.44,4.44,0,0,0-3.19,2.11A2.16,2.16,0,0,0,61.57,92a2.87,2.87,0,0,0-.86.18,18.7,18.7,0,0,0-5.37,3.65c-.35.33.18.85.53.52a20.09,20.09,0,0,1,2.56-2,12.48,12.48,0,0,1,2.67-1.49,3.69,3.69,0,0,1,1.65.06c.49.07,1,.12,1.48.15A21.15,21.15,0,0,0,67.7,93l.1,0,.82,2.2c-.12.44-.23.89-.31,1.34L66.6,98.73A2,2,0,0,1,65,99.79c-.56,0-1.12,0-1.68,0a26.15,26.15,0,0,0-2.8.37,11.81,11.81,0,0,1-1.21-2.63A8.22,8.22,0,0,1,58.91,96c0-.18,0-.81.24-.84.47,0,.48-.79,0-.75-1.33.14-1,1.86-.76,2.73a12.58,12.58,0,0,0,1.32,3.17c-1.21.24-2.41.53-3.61.83-.47.11-.27.83.2.71,1.27-.31,2.55-.62,3.84-.86a.39.39,0,0,0,.63-.11l.24,0,.36,3.78a10.69,10.69,0,0,1,.13,1.87,2.06,2.06,0,0,1-1,1.53A72.22,72.22,0,0,1,54,112a.38.38,0,0,0,.38.65c1.25-.71,2.49-1.44,3.71-2.19a24.9,24.9,0,0,0,3.28-2.18c1-.85,1-1.89.85-3.1l-.42-4.46a22.33,22.33,0,0,1,2.72-.22,5.5,5.5,0,0,0,1.28-.12,1,1,0,0,0-.18,1,5.17,5.17,0,0,0,1,1.58,22.39,22.39,0,0,0,2.16,2.5,10.39,10.39,0,0,0-.74,3,.3.3,0,0,0-.25-.09A7.81,7.81,0,0,1,63,107.08c-.39-.27-.77.37-.37.64a8.34,8.34,0,0,0,5.13,1.41.36.36,0,0,0,.21-.08,10.77,10.77,0,0,0,0,1.7,44,44,0,0,0-8.93,4.71c-.68.47-1.32,1-2,1.43a4.5,4.5,0,0,1-2.59.79c-1.28,0-2.85.1-3.48,1.43-.2.44.44.81.65.38.69-1.48,2.77-.91,4-1.17,1.5-.29,2.7-1.5,3.92-2.34a45.33,45.33,0,0,1,4.18-2.51,23.18,23.18,0,0,0-.24,5.39A50.13,50.13,0,0,0,56,121.55l-8.89,3.65c-.43.18-.24.9.2.72l8.88-3.65a46.75,46.75,0,0,1,8.1-2.8A14.78,14.78,0,0,0,64,121.3c-.2,1.61-.62,3.43,0,5l.1.2a26.94,26.94,0,0,1-3.94,1.8,46.74,46.74,0,0,0-4.52,1.47,12.84,12.84,0,0,0-1.86,1.33,7.57,7.57,0,0,1-2.24.92,22.13,22.13,0,0,0-4.67,2,.37.37,0,0,0,.38.64,22.39,22.39,0,0,1,4.79-2,6.72,6.72,0,0,0,2.11-.91,14.4,14.4,0,0,1,1.87-1.33,13.4,13.4,0,0,1,2.3-.74c.8-.22,1.58-.48,2.36-.77a28.72,28.72,0,0,0,3.82-1.77,2.74,2.74,0,0,0,2.53,1.06c1.28-.18,2.49-1.27,3.82-1a4.91,4.91,0,0,1,.74.33,2.5,2.5,0,0,1,.87,1.56c.27.88.67,1.74,1.46,1.95l-1.06,3.65-.66,2.25a2.89,2.89,0,0,1-.33,1c-.29.28-.85-.14-1.15-.28a15.53,15.53,0,0,0-7.33-1.32l.39-.19a4.85,4.85,0,0,0,2.6-3c.36-1.41.2-3.85,2-4.27.47-.11.27-.83-.19-.72-1.46.33-2,1.82-2.26,3.15a7.91,7.91,0,0,1-.61,2.49,4.2,4.2,0,0,1-1.63,1.58A25.35,25.35,0,0,1,59,137.13l-5.84,2c-.45.15-.25.87.2.72l5.83-2c1.09-.37,2.22-.7,3.3-1.12a.3.3,0,0,0,.35.36,14.8,14.8,0,0,1,4.69.24,15,15,0,0,1,2.2.65c.61.24,1.39.82,2.06.79s.82-.48,1-1c.26-.81.47-1.63.71-2.44l1.28-4.4.22,0c1.06-.32,2.06-.83,3.15-1.13.43-.11.86-.2,1.3-.29a.3.3,0,0,0,.15.33c-.77,1.25-.67,3.07-.66,4.46q.06,4.55.11,9.09l.06,4.67a23.56,23.56,0,0,0,.23,3.94,7.39,7.39,0,0,0,1.27,3l-.27.36c-.94,1.19-2,2.49-1.72,4.08l-.75.8c-.28-.06-.61.2-.43.49a29.5,29.5,0,0,0-2.89,4c-.25.41.39.78.64.37a28.62,28.62,0,0,1,2.69-3.7,20.41,20.41,0,0,1,2.8,5.72c-.19.64-.34,1.29-.47,1.94a6.8,6.8,0,0,1-1.14.46,2.9,2.9,0,0,0-1.6,1.09,3,3,0,0,0-.33,1.42c0,.64-.08,1.29-.11,1.94-.07,1.3-.14,2.6-.2,3.9a.38.38,0,0,0,.48.36l1.52-.3c.47-.09.27-.81-.2-.72l-1,.2c.05-1.14.11-2.29.17-3.44,0-.56.06-1.13.1-1.7a2,2,0,0,1,.51-1.59,12,12,0,0,1,2.09-.93.34.34,0,0,0,.37-.16l.07-.12a.75.75,0,0,0,.16-.15.75.75,0,0,0,.16.15l.07.12a.35.35,0,0,0,.38.16,11.86,11.86,0,0,1,2.08.93,2,2,0,0,1,.51,1.59c0,.57.07,1.14.1,1.7.06,1.15.12,2.3.17,3.44l-1-.2c-.46-.09-.66.63-.19.72l1.52.3a.38.38,0,0,0,.47-.36c-.06-1.3-.12-2.6-.2-3.9,0-.65-.06-1.3-.11-1.94a3,3,0,0,0-.33-1.42,2.9,2.9,0,0,0-1.6-1.09,6.8,6.8,0,0,1-1.14-.46,18.88,18.88,0,0,0-.47-1.94,20.41,20.41,0,0,1,2.8-5.72,28.62,28.62,0,0,1,2.69,3.7c.25.41.89,0,.64-.37a29.5,29.5,0,0,0-2.89-4c.18-.29-.14-.55-.43-.49l-.75-.8c.29-1.59-.78-2.89-1.72-4.08L81.5,155a7.39,7.39,0,0,0,1.27-3,23.56,23.56,0,0,0,.23-3.94l.06-4.67c0-3,.07-6.06.11-9.09,0-1.39.11-3.21-.65-4.46a.3.3,0,0,0,.14-.33c.44.09.87.18,1.3.29,1.09.3,2.09.81,3.16,1.13l.21,0,1.28,4.4c.24.81.45,1.63.71,2.44.16.47.43.93,1,1s1.45-.55,2.06-.79a15.41,15.41,0,0,1,2.2-.65,14.8,14.8,0,0,1,4.69-.24.31.31,0,0,0,.36-.36c1.07.42,2.2.75,3.29,1.12l5.83,2c.45.15.65-.57.2-.72l-5.83-2a25.19,25.19,0,0,1-4.79-1.83,4.2,4.2,0,0,1-1.63-1.58,7.63,7.63,0,0,1-.6-2.49c-.22-1.33-.81-2.82-2.26-3.15-.47-.11-.67.61-.2.72,1.83.42,1.66,2.86,2,4.27a4.85,4.85,0,0,0,2.6,3l.39.19a15.53,15.53,0,0,0-7.33,1.32c-.3.14-.86.56-1.15.28a2.89,2.89,0,0,1-.33-1l-.65-2.25L88.1,131c.79-.21,1.19-1.07,1.46-1.95a2.5,2.5,0,0,1,.87-1.56,4.91,4.91,0,0,1,.74-.33c1.33-.23,2.54.86,3.82,1a2.74,2.74,0,0,0,2.53-1.06,28.72,28.72,0,0,0,3.82,1.77c.78.29,1.56.55,2.36.77a13.12,13.12,0,0,1,2.3.74,14.4,14.4,0,0,1,1.87,1.33,6.82,6.82,0,0,0,2.11.91,22.18,22.18,0,0,1,4.79,2,.37.37,0,0,0,.38-.64,22.13,22.13,0,0,0-4.67-2,7.4,7.4,0,0,1-2.23-.92,13.5,13.5,0,0,0-1.87-1.33,46.74,46.74,0,0,0-4.52-1.47,26.94,26.94,0,0,1-3.94-1.8l.1-.2c.67-1.55.26-3.37,0-5a14.78,14.78,0,0,0-.25-1.83,46.46,46.46,0,0,1,8.1,2.8l8.88,3.65c.44.18.64-.54.2-.72l-8.88-3.65a50.25,50.25,0,0,0-7.58-2.69,23.18,23.18,0,0,0-.24-5.39,45.33,45.33,0,0,1,4.18,2.51c1.22.84,2.43,2,3.92,2.34,1.28.26,3.36-.31,4,1.17.21.43.85.06.65-.38-.63-1.33-2.2-1.4-3.48-1.43a4.5,4.5,0,0,1-2.59-.79c-.68-.45-1.32-1-2-1.43a44.38,44.38,0,0,0-8.94-4.71,10.77,10.77,0,0,0,.05-1.7.36.36,0,0,0,.21.08,8.34,8.34,0,0,0,5.13-1.41c.4-.27,0-.91-.37-.64a7.79,7.79,0,0,1-4.76,1.31.3.3,0,0,0-.25.09,10.39,10.39,0,0,0-.74-3,22.39,22.39,0,0,0,2.16-2.5,4.81,4.81,0,0,0,1-1.58,1,1,0,0,0-.18-1,5.55,5.55,0,0,0,1.28.12,22.66,22.66,0,0,1,2.73.22c-.15,1.49-.29,3-.43,4.46-.11,1.21-.14,2.25.85,3.1A25.57,25.57,0,0,0,104,110.5c1.22.75,2.46,1.48,3.71,2.19.42.23.8-.41.38-.65a72.22,72.22,0,0,1-6.51-4,2.06,2.06,0,0,1-1-1.53,11.76,11.76,0,0,1,.13-1.87l.36-3.78.24,0a.39.39,0,0,0,.63.11c1.29.24,2.57.55,3.84.86.47.12.67-.6.2-.71-1.2-.3-2.4-.59-3.61-.83a12.23,12.23,0,0,0,1.32-3.17c.22-.87.57-2.59-.76-2.73-.48,0-.47.7,0,.75.29,0,.26.66.24.84a7.51,7.51,0,0,1-.37,1.54,11.81,11.81,0,0,1-1.21,2.63,26.15,26.15,0,0,0-2.8-.37c-.56,0-1.12,0-1.68,0a2,2,0,0,1-1.63-1.06l-1.71-2.22c-.08-.45-.19-.9-.31-1.34.28-.73.55-1.47.82-2.2l.1,0a21.17,21.17,0,0,0,3.47.06c.49,0,1-.08,1.48-.15a3.69,3.69,0,0,1,1.65-.06,12.48,12.48,0,0,1,2.67,1.49,20.09,20.09,0,0,1,2.56,2c.35.33.88-.19.53-.52a18.57,18.57,0,0,0-5.37-3.65,2.87,2.87,0,0,0-.86-.18,2.16,2.16,0,0,0-1.82-1.61A4.46,4.46,0,0,0,95.5,88.3a7.07,7.07,0,0,0-1-1.94l-1.71-2.68a.35.35,0,0,0-.29-.17l.31-.41a1.87,1.87,0,0,1,1.44-.79,4.68,4.68,0,0,0,3.59-2.52c.19-.38.25-.91.57-1.22a1,1,0,0,1,.46-.22c-.15.35-.33.68-.5,1s.41.79.64.37a13.36,13.36,0,0,0,.66-1.37,5.76,5.76,0,0,0,2.15,0,.35.35,0,0,0,.19-.14,4.81,4.81,0,0,1,3.53.79,25.53,25.53,0,0,0,3.29,1.69,13.63,13.63,0,0,0,2,.55l5.48,8.13c.88,1.3,1.78,2.6,2.54,4a16.6,16.6,0,0,1,1,2.14c0,.16.6,2,.23,1.87a.37.37,0,0,0-.2.72.83.83,0,0,0,1-.66,3.52,3.52,0,0,0-.35-2.13A23,23,0,0,0,118,90.58c-2-3.07-4.12-6.12-6.18-9.17,1.34.2,2.72.28,4.06.39a28.3,28.3,0,0,1,4,.5A15.17,15.17,0,0,0,121.64,87c.94,1.71,2,3.36,2.76,5.14v0a6,6,0,0,1-3.33,6.94c-.29.13-.19.5,0,.65.92.7,2.2,1.51,2.52,2.71s-.83,1.77-.74,2.83a1.16,1.16,0,0,0,.07.31,6.43,6.43,0,0,1-.76,0,.89.89,0,0,0-.23,0h-.13c-.44.08-.3.67.08.73a5.6,5.6,0,0,0-.89,4.17,1.44,1.44,0,0,0-.91.18,1.69,1.69,0,0,0-.44-.52.73.73,0,0,0-.17-.64.7.7,0,0,0-1,0,.34.34,0,0,0-.09.36.38.38,0,0,0-.2.32V111c-.3.26-.62.5-.91.76a4,4,0,0,0-.82.92,8.48,8.48,0,0,1-3.09.78c-.48,0-.48.77,0,.74a9.57,9.57,0,0,0,2.8-.58,3.14,3.14,0,0,0,1.07,2.1,5.42,5.42,0,0,1,1.2,2.75c.06.48.78.28.71-.19a6,6,0,0,0-1.39-3.09,2.66,2.66,0,0,1-.86-1.44,1.21,1.21,0,0,1,.1-.5l.2-.09a.32.32,0,0,0,.15-.43l0,0a10.08,10.08,0,0,1,1.16-1,.36.36,0,0,0,.4-.35,3.87,3.87,0,0,0,.4-.41,1,1,0,0,1,.3.65c0,.4.67.53.73.1s.85-.53,1-.08a.37.37,0,0,0,.72-.2,4.9,4.9,0,0,1,.16-4v.16c0,.26.32.51.56.33a1.17,1.17,0,0,0,.33-1.47l.43,0a.85.85,0,0,0,.61,0,.36.36,0,0,0,.59-.17.39.39,0,0,1,.25-.3h0l.09,0c.31-.13.2-.56-.06-.67a2.48,2.48,0,0,0,0-.72c-.07-.48-.79-.28-.72.19a1.76,1.76,0,0,1-.09.73,3.74,3.74,0,0,1-.45.12c-.32-.29,0-.85.18-1.13a2.74,2.74,0,0,0,.47-1.84c-.21-1.31-1.36-2.23-2.4-3a6.77,6.77,0,0,0,3.33-5.07,40.65,40.65,0,0,1,1.21,4.45c1,4.45,1.44,9,2,13.54a116.09,116.09,0,0,1,1,14.31,67.68,67.68,0,0,1-.43,7.12c-.27,2.35-.63,4.68-.78,7a80.41,80.41,0,0,0,.82,14.2,62.71,62.71,0,0,0,2.66,13.23,71.14,71.14,0,0,0,4.89,10.51c3.65,6.72,7.78,13.59,8.24,21.41,0,.48.77.48.74,0a26,26,0,0,0-.3-2.78c-1.23-7.63-5.56-14.27-9.1-21a54.14,54.14,0,0,1-4.63-11.26,93.3,93.3,0,0,1-2.17-13.92c-.25-2.41-.46-4.84-.48-7.27a52.55,52.55,0,0,1,.47-7.09c.3-2.39.61-4.78.73-7.19s.1-4.77,0-7.16c-.22-4.82-.81-9.62-1.43-14.41a80.41,80.41,0,0,0-2.34-12.9,30.28,30.28,0,0,0-2.47-5.87A36.13,36.13,0,0,1,121,84a9.57,9.57,0,0,1-.38-1.44,9.64,9.64,0,0,1,1.65.62A11.62,11.62,0,0,1,127,87.81c1.34,2.2,2.5,4.52,3.73,6.78.68,1.25,1.35,2.5,2,3.74A71.9,71.9,0,0,0,138,131a80.11,80.11,0,0,1,2.93,7.58,22.89,22.89,0,0,1,.92,5.9,21.93,21.93,0,0,0-.2,4.65c-.2,2.1-.47,4.18-.61,6.28a38.92,38.92,0,0,0,.38,8.14,76.58,76.58,0,0,0,4.67,16c.17.45.89.25.71-.2-2.23-5.83-4.31-11.85-4.91-18.11A42.12,42.12,0,0,1,142,153c0-.26.06-.53.08-.79a8.38,8.38,0,0,0,.69,2,13.72,13.72,0,0,0,1.83,2.4,16.63,16.63,0,0,1,2.84,5.13,30.88,30.88,0,0,1,1.3,11.63c0,.48.72.47.74,0A39.42,39.42,0,0,0,149.26,166.75ZM64,92.29c-.53,0-1.1-.17-1.66-.23a1.4,1.4,0,0,1,1.28-.93.37.37,0,0,0,.32-.19,3.68,3.68,0,0,1,2.58-1.88,10,10,0,0,0,.89,2.86l.12.34A21.89,21.89,0,0,1,64,92.29Zm23,1.9c1.8.13,3.61.21,5.42.25.11.35.21.69.31,1-.27,0-.53.26-.32.52l.62.81a5.82,5.82,0,0,1,0,2.08,3.42,3.42,0,0,1-2.2,2.73.36.36,0,0,0-.21.53,21.14,21.14,0,0,0-4.33-.63h0l-.88-.51a9.87,9.87,0,0,0,.3-3.91C85.72,96.06,86,94.66,87.05,94.19Zm-1.59,15.42h0a4.9,4.9,0,0,1-1.13.13,1.83,1.83,0,0,0,.22-.62A6.66,6.66,0,0,0,85.46,109.61Zm-4.61,5.65c.06-.41.14-.81.19-1.22,0,.41.13.81.19,1.22a3.22,3.22,0,0,1-.19,2.19A3.22,3.22,0,0,1,80.85,115.26Zm-3.31-6.14a1.64,1.64,0,0,0,.22.62,4.92,4.92,0,0,1-1.14-.13h0A7.42,7.42,0,0,0,77.54,109.12ZM76.65,101l-.88.51h0a21,21,0,0,0-4.32.63.36.36,0,0,0-.22-.53A3.42,3.42,0,0,1,69,98.9a5.82,5.82,0,0,1,0-2.08l.62-.81c.2-.26-.06-.52-.33-.52.1-.36.2-.7.31-1,1.81,0,3.62-.12,5.42-.25,1.06.47,1.33,1.87,1.32,2.91A9.87,9.87,0,0,0,76.65,101Zm-9.12,2c-.34-.44-.67-.89-1-1.35a1.77,1.77,0,0,1-.27-.53.5.5,0,0,1,0-.21h0c.43-.1.29-.72-.11-.72A3.23,3.23,0,0,0,67,99.4l1.16-1.51a5.39,5.39,0,0,0,.16,1.44,4.11,4.11,0,0,0,2.57,3c-.18,0-.36.09-.54.15a.4.4,0,0,0-.26.26l-.39,2.22-.08.41A24.05,24.05,0,0,1,67.53,103.05Zm1.75,3h0a.33.33,0,0,0,.19.09,2.43,2.43,0,0,0,0,.71c.07.56.65.94,1,1.31l1.59,1.53.12.07-.46,3.56c-.08.62-.17,1.24-.25,1.86a7.08,7.08,0,0,0-.1,1.45A10.44,10.44,0,0,1,69.28,106Zm-1.2,5.46a10.93,10.93,0,0,0,4,6.77.39.39,0,0,0,.37.06,9.49,9.49,0,0,1,2.14,1.54h0a1.48,1.48,0,0,0-.68.6,65.71,65.71,0,0,0-8.11-1.61.31.31,0,0,0-.13-.48.75.75,0,0,0-1,.26h0l-.19,0h-.11a22.32,22.32,0,0,1,.23-5.1.39.39,0,0,0-.16-.39C65.56,112.57,66.81,112,68.08,111.5Zm-2.86,15.25.07,0a.37.37,0,0,0-.37-.65l-.11.06a6,6,0,0,1-.25-3.28c.08-.69.18-1.37.26-2.06,0-.1.09-.79.2-1.27a64.87,64.87,0,0,1,8.53,1.65h0a4,4,0,0,1-.38.87c-.27.4-.71.5-1.11.72a4.12,4.12,0,0,0-1.56,1.77c-.29.56-.71,1.26-.44,1.88a9.74,9.74,0,0,0-1.9.66C67.11,127.5,66,127.67,65.22,126.75ZM81,120.23c1.21.43,1.12,1.53.81,2.58a11.33,11.33,0,0,0-.23,5.66l-.58.06-.58-.06a11.33,11.33,0,0,0-.23-5.66C79.92,121.76,79.84,120.66,81,120.23Zm0,42.9A3.82,3.82,0,0,1,80,160.35,3.88,3.88,0,0,1,81,157.77a3.94,3.94,0,0,1,0,5.36Zm0-6.39c-.17-.15-.34-.28-.53-.42l.53-.65.53.65C81.38,156.46,81.21,156.59,81,156.74ZM79.46,158a5.76,5.76,0,0,1,.61-1.08c.15.11.3.22.44.34a4.65,4.65,0,0,0-1.15,2.18,2.92,2.92,0,0,1-.09-.5A2.5,2.5,0,0,1,79.46,158Zm3.82,2.32.45.5A21.35,21.35,0,0,0,81,165.93a21,21,0,0,0-2.69-5.11l.45-.5a3.31,3.31,0,0,0,.49-.5c0,.17,0,.35-.05.53a4.6,4.6,0,0,0,1.22,3.25s0,0,0,0a.37.37,0,0,0,.38.64,2.07,2.07,0,0,0,.24-.17l.24.17a.37.37,0,0,0,.38-.64l0,0a4.64,4.64,0,0,0,1.21-3.25c0-.18,0-.36,0-.53A3.87,3.87,0,0,0,83.28,160.32Zm-.47-1.38a2.92,2.92,0,0,1-.09.5,4.65,4.65,0,0,0-1.15-2.18c.14-.12.29-.23.44-.34a5.76,5.76,0,0,1,.61,1.08A2.32,2.32,0,0,1,82.81,158.94Zm-.4-23.66c-.06,4.82,0,9.64-.18,14.45a11.71,11.71,0,0,1-.41,3.07,6.35,6.35,0,0,1-.78,1.59,6.35,6.35,0,0,1-.78-1.59,11.71,11.71,0,0,1-.41-3.07c-.14-4.81-.12-9.63-.18-14.45,0-1.74-.51-4.83,1.37-5.83C82.92,130.45,82.43,133.54,82.41,135.28Zm8-8.64c-1.06.46-1.33,1.4-1.65,2.42-.13.43-.29,1-.76,1.18l-.11,0,0-.14a.38.38,0,0,0-.73,0c-.19-.07-.37-.16-.54-.23-.37-.16-.74-.3-1.12-.43a19.79,19.79,0,0,0-3-.77,10.27,10.27,0,0,1-.31-3.54,10.4,10.4,0,0,1,.41-2.07,4.27,4.27,0,0,0,.27-1.9,2.05,2.05,0,0,0-.63-1.18,7,7,0,0,1,1.37.09c.33,0,.66-.34.36-.63l-1.5-1.41c-.35-.33-.87.2-.52.53l.74.7a5.62,5.62,0,0,0-1.59.15,5.62,5.62,0,0,0-1.59-.15l.75-.7c.35-.33-.18-.86-.53-.53l-1.5,1.41c-.3.29,0,.67.36.63a7,7,0,0,1,1.38-.09,2,2,0,0,0-.63,1.18,4.13,4.13,0,0,0,.26,1.9,10.4,10.4,0,0,1,.41,2.07,10,10,0,0,1-.31,3.54,20.08,20.08,0,0,0-3,.77c-.38.13-.75.27-1.12.43-.17.07-.35.16-.54.23a.38.38,0,0,0-.73,0l0,.14-.11,0c-.47-.16-.63-.75-.76-1.18-.32-1-.59-2-1.65-2.42l-.32-.12a.27.27,0,0,0-.18-.1h-.07l-.15-.09c-.43-.3-.09-.81.09-1.18a3.81,3.81,0,0,1,1.4-1.74c.69-.38,1.22-.58,1.56-1.33a6.84,6.84,0,0,1,.54-1.24,4.78,4.78,0,0,1,3.47,0,.38.38,0,0,0,.46-.26.37.37,0,0,0-.26-.46,5.39,5.39,0,0,0-2.81-.29.3.3,0,0,0,0-.14,4.24,4.24,0,0,0-1.59-1.38c-.64-.38-1.46-.78-1.62-1.59a5.51,5.51,0,0,1,.13-1.76c.07-.58.15-1.17.23-1.75l.42-3.27a6,6,0,0,0,3.32-.19.36.36,0,0,0,.2.57,5.56,5.56,0,0,0,1.95.12l.43.34c.79.59,1.49,1.11,1.55,2.17.09,1.74-1,3.8.35,5.28a.31.31,0,0,0,.33.1.34.34,0,0,0,.34-.1c1.37-1.48.26-3.54.35-5.28,0-1.06.75-1.58,1.54-2.17.15-.11.3-.22.44-.34a5.59,5.59,0,0,0,2-.12.36.36,0,0,0,.19-.57,6,6,0,0,0,3.32.19c.14,1.09.28,2.18.43,3.27l.22,1.75a5.51,5.51,0,0,1,.13,1.76c-.16.81-1,1.21-1.62,1.59a4.24,4.24,0,0,0-1.59,1.38.3.3,0,0,0,0,.14,5.39,5.39,0,0,0-2.81.29.37.37,0,0,0-.26.46.38.38,0,0,0,.46.26,4.78,4.78,0,0,1,3.47,0,6.84,6.84,0,0,1,.54,1.24c.34.75.88,1,1.56,1.33a3.74,3.74,0,0,1,1.4,1.74c.18.37.52.88.09,1.18l-.15.09h-.07a.27.27,0,0,0-.18.1Zm6.74-.58a.37.37,0,0,0-.37.65l.07,0c-.81.92-1.89.75-2.94.32a9.74,9.74,0,0,0-1.9-.66c.27-.62-.15-1.32-.44-1.88A4.16,4.16,0,0,0,90,122.76c-.41-.22-.85-.32-1.12-.72a4,4,0,0,1-.38-.87h0a64.87,64.87,0,0,1,8.53-1.65c.11.48.18,1.17.2,1.27.09.69.18,1.37.26,2.06a6,6,0,0,1-.25,3.28Zm.58-12.88a.38.38,0,0,0-.17.39,22.32,22.32,0,0,1,.23,5.1h-.11l-.19,0h0a.75.75,0,0,0-1-.26.31.31,0,0,0-.13.48,66.08,66.08,0,0,0-8.11,1.61,1.51,1.51,0,0,0-.67-.6h0a9.49,9.49,0,0,1,2.14-1.54.39.39,0,0,0,.37-.06,10.88,10.88,0,0,0,4-6.77C95.27,112,96.52,112.57,97.74,113.18Zm-7,3.45a7.08,7.08,0,0,0-.1-1.45l-.25-1.86c-.15-1.19-.3-2.37-.46-3.56l.12-.07,1.59-1.53c.39-.37,1-.75,1-1.31a2.13,2.13,0,0,0,0-.71.39.39,0,0,0,.2-.09h0A10.44,10.44,0,0,1,90.7,116.63ZM95.07,99.4a3.2,3.2,0,0,0,.84.84c-.4,0-.54.62-.11.72h0a.5.5,0,0,1,0,.21,1.57,1.57,0,0,1-.27.53c-.31.46-.63.91-1,1.35a24.05,24.05,0,0,1-2.11,2.29l-.07-.41c-.14-.74-.27-1.48-.4-2.22a.4.4,0,0,0-.26-.26l-.53-.15a4.12,4.12,0,0,0,2.56-3,5.85,5.85,0,0,0,.17-1.44Zm3.07-8.46a.37.37,0,0,0,.32.19,1.39,1.39,0,0,1,1.28.93c-.56.06-1.13.19-1.66.23a21.89,21.89,0,0,1-3.53,0l.12-.34a10,10,0,0,0,.89-2.86A3.68,3.68,0,0,1,98.14,90.94Z" fill="#ccd9e8" stroke="#ccd9e8" stroke-miterlimit="10" stroke-width="0.5" opacity="0.3"/>
          <path d="M107,177.6c-3.28-.33-5.54,2.31-8.22,3.69a3.08,3.08,0,0,1-2.83.12c-.9-.36-1.79-.74-2.69-1.11L87.62,178a.36.36,0,0,0-.42.17c-.48.74-1.13,1.74-2.13,1.76s-1.8-1.07-2-2a15.09,15.09,0,0,1-.23-3.22c0-1.16-.07-2.31-.1-3.47a.38.38,0,0,0-.75,0c.05,1.6.09,3.21.14,4.81a6.06,6.06,0,0,0,.82,3.42,2.59,2.59,0,0,0,2.61,1.16,2.62,2.62,0,0,0,.8-.36A31.72,31.72,0,0,1,88,186.88c.14,1.09.14,2.19.29,3.27a2.42,2.42,0,0,0,1.05,1.9.37.37,0,0,0,.38-.64c-.81-.5-.73-1.69-.79-2.52a30,30,0,0,0-.33-3,32.75,32.75,0,0,0-1.61-6.17,6.51,6.51,0,0,0,.72-.94l5.89,2.42c.94.38,1.88.85,2.85,1.14a3.43,3.43,0,0,0,2.53-.28c2.67-1.25,4.89-4.07,8.11-3.73a8.7,8.7,0,0,1,4.57,2.27,12,12,0,0,1,3.14,3.77c1.46,3,0,6.31-2.45,8.34-1.72,1.44-5.26,2.63-4.7,5.47.09.47.81.27.71-.2-.33-1.68,1.61-2.79,2.8-3.54a11.66,11.66,0,0,0,3.59-3.26,7.74,7.74,0,0,0,1.41-4.2,7.24,7.24,0,0,0-1.43-4.18C113,180.37,110.12,177.9,107,177.6Z" fill="#ccd9e8" stroke="#ccd9e8" stroke-miterlimit="10" stroke-width="0.5" opacity="0.3"/>
        </g>
      </g>
    </g>
  </g>
</svg>
