<svg xmlns="http://www.w3.org/2000/svg" width="132.16" height="132.43" viewBox="0 0 132.16 132.43">
  <g id="Layer_2" data-name="Layer 2">
    <g id="Tcell">
      <g>
        <g>
          <path d="M77.6,129.75a7,7,0,0,0-3.95-4,1.25,1.25,0,0,1-.85-1.08c-.19-2.27-.33-3.91-.33-3.91a1,1,0,0,0-1-.85l-.67.06a.94.94,0,0,0-.86,1s.14,1.65.34,3.91a1.25,1.25,0,0,1-.65,1.21,7,7,0,0,0-3.21,4.58,1,1,0,0,0,.76,1.21h0a1,1,0,0,0,1.17-.71,3.86,3.86,0,0,1,7.48-.59,1,1,0,0,0,1.32.48A1,1,0,0,0,77.6,129.75Z" fill="none" stroke="#d6e1ed" stroke-miterlimit="10" stroke-width="0.99"/>
          <path d="M41.36,125.63a7,7,0,0,0-1.17-5.48,1.26,1.26,0,0,1-.13-1.38l1.83-3.46A1,1,0,0,0,41.5,114l-.6-.32a.94.94,0,0,0-1.27.4l-1.83,3.47a1.24,1.24,0,0,1-1.2.66,7,7,0,0,0-5.17,2.12,1,1,0,0,0,0,1.43h0a1,1,0,0,0,1.36,0,4.2,4.2,0,0,1,4.69-.86,4.22,4.22,0,0,1,1.92,4.4,1,1,0,0,0,.86,1.12A1,1,0,0,0,41.36,125.63Z" fill="none" stroke="#d6e1ed" stroke-miterlimit="10" stroke-width="0.99"/>
          <path d="M13.1,102.57a7.05,7.05,0,0,0,2-5.25,1.24,1.24,0,0,1,.63-1.22l3.41-1.93a1,1,0,0,0,.36-1.28l-.34-.59A.92.92,0,0,0,17.87,92l-3.42,1.93a1.28,1.28,0,0,1-1.37-.09,7,7,0,0,0-5.49-1A1,1,0,0,0,6.8,94h0a1,1,0,0,0,1.13.78,4.2,4.2,0,0,1,4.4,1.8,4.22,4.22,0,0,1-.76,4.75,1,1,0,0,0,.11,1.4A1,1,0,0,0,13.1,102.57Z" fill="none" stroke="#d6e1ed" stroke-miterlimit="10" stroke-width="0.99"/>
          <path d="M1.79,67.89a7,7,0,0,0,4.5-3.34,1.29,1.29,0,0,1,1.2-.7l3.91.23a.94.94,0,0,0,1-.88l0-.68a.94.94,0,0,0-.88-1l-3.92-.22a1.27,1.27,0,0,1-1.11-.82,7,7,0,0,0-4.07-3.82,1,1,0,0,0-1.31.57h0a1,1,0,0,0,.53,1.26,4.23,4.23,0,0,1,2.74,3.91A4.24,4.24,0,0,1,1.2,66a1,1,0,0,0-.66,1.24A1,1,0,0,0,1.79,67.89Z" fill="none" stroke="#d6e1ed" stroke-miterlimit="10" stroke-width="0.99"/>
          <path d="M11,32.6a7,7,0,0,0,5.59-.38,1.26,1.26,0,0,1,1.38.07l3.17,2.3a.94.94,0,0,0,1.31-.2l.4-.55a.94.94,0,0,0-.21-1.31L19.5,30.22A1.25,1.25,0,0,1,19,28.94a7,7,0,0,0-1.36-5.42,1,1,0,0,0-1.41-.23h0A1,1,0,0,0,16,24.64a4.19,4.19,0,0,1,.19,4.76,4.21,4.21,0,0,1-4.63,1.28,1,1,0,0,0-1.23.68A1,1,0,0,0,11,32.6Z" fill="none" stroke="#d6e1ed" stroke-miterlimit="10" stroke-width="0.99"/>
          <path d="M37.88,7.91a7,7,0,0,0,4.91,2.71,1.25,1.25,0,0,1,1.12.79l1.42,3.66a.94.94,0,0,0,1.22.53l.63-.24a.94.94,0,0,0,.53-1.22l-1.42-3.66a1.26,1.26,0,0,1,.28-1.34,7,7,0,0,0,1.79-5.29,1,1,0,0,0-1.06-1h0a1,1,0,0,0-.92,1A4.22,4.22,0,0,1,44,8a4.22,4.22,0,0,1-4.59-1.43A1,1,0,0,0,38,6.49,1,1,0,0,0,37.88,7.91Z" fill="none" stroke="#d6e1ed" stroke-miterlimit="10" stroke-width="0.99"/>
          <path d="M73.81,1.66a7,7,0,0,0,2.67,4.92A1.28,1.28,0,0,1,77,7.87c-.46,2.23-.78,3.84-.78,3.84a.93.93,0,0,0,.73,1.1l.66.14a.94.94,0,0,0,1.11-.74s.33-1.61.78-3.84a1.25,1.25,0,0,1,1-1A7,7,0,0,0,84.83,3.9a1,1,0,0,0-.38-1.37h0a1,1,0,0,0-1.33.34A4.2,4.2,0,0,1,78.87,5a4.23,4.23,0,0,1-3.09-3.68A1,1,0,0,0,74.65.5,1,1,0,0,0,73.81,1.66Z" fill="none" stroke="#d6e1ed" stroke-miterlimit="10" stroke-width="0.99"/>
          <path d="M107.43,15.82a7,7,0,0,0-.42,5.59,1.28,1.28,0,0,1-.26,1.36L104,25.57a.94.94,0,0,0,0,1.33l.49.47a1,1,0,0,0,1.33,0l2.73-2.82a1.26,1.26,0,0,1,1.34-.3,7,7,0,0,0,5.56-.58,1,1,0,0,0,.42-1.36h0a1,1,0,0,0-1.3-.42,4.21,4.21,0,0,1-4.74-.5,4.21,4.21,0,0,1-.61-4.76,1,1,0,0,0-.5-1.32A1,1,0,0,0,107.43,15.82Z" fill="none" stroke="#d6e1ed" stroke-miterlimit="10" stroke-width="0.99"/>
          <path d="M128.05,45.91a7,7,0,0,0-3.38,4.47,1.25,1.25,0,0,1-1,1l-3.82.89a.94.94,0,0,0-.7,1.12l.15.67a1,1,0,0,0,1.13.7l3.82-.89a1.24,1.24,0,0,1,1.29.47,7,7,0,0,0,5,2.52,1,1,0,0,0,1.09-.92h0a1,1,0,0,0-.87-1.06,4.23,4.23,0,0,1-3.72-3,4.23,4.23,0,0,1,2.07-4.33,1,1,0,1,0-1.1-1.66Z" fill="none" stroke="#d6e1ed" stroke-miterlimit="10" stroke-width="0.99"/>
          <path d="M129.12,82.37a7,7,0,0,0-5.25,1.94,1.28,1.28,0,0,1-1.35.33l-3.69-1.32a.93.93,0,0,0-1.19.56l-.23.64a.93.93,0,0,0,.56,1.2l3.7,1.32a1.26,1.26,0,0,1,.83,1.09A7,7,0,0,0,125.33,93a1,1,0,0,0,1.42-.18h0a1,1,0,0,0-.16-1.36,3.85,3.85,0,0,1,2.57-7,1,1,0,0,0,1-1A1,1,0,0,0,129.12,82.37Z" fill="none" stroke="#d6e1ed" stroke-miterlimit="10" stroke-width="0.99"/>
          <path d="M110.32,113.62a7,7,0,0,0-5.47-1.21,1.27,1.27,0,0,1-1.31-.45l-2.39-3.1a.93.93,0,0,0-1.31-.17l-.54.41a.94.94,0,0,0-.17,1.32l2.4,3.1a1.26,1.26,0,0,1,.1,1.37,7.07,7.07,0,0,0-.22,5.59,1,1,0,0,0,1.29.61h0a1,1,0,0,0,.6-1.23,3.85,3.85,0,0,1,6-4.54,1,1,0,0,0,1.37-.31A1,1,0,0,0,110.32,113.62Z" fill="none" stroke="#d6e1ed" stroke-miterlimit="10" stroke-width="0.99"/>
        </g>
        <g>
          <g>
            <path d="M10.48,65.68a56.18,56.18,0,1,1,56.18,56.18A56.24,56.24,0,0,1,10.48,65.68Zm111.26,0a55.09,55.09,0,1,0-55.08,55.08A55.15,55.15,0,0,0,121.74,65.68Z" fill="#b8cbe0"/>
            <path d="M12,65.68a54.68,54.68,0,1,1,54.68,54.67A54.74,54.74,0,0,1,12,65.68Zm108.26,0a53.59,53.59,0,1,0-53.58,53.58A53.65,53.65,0,0,0,120.24,65.68Z" fill="#b8cbe0"/>
            <circle cx="66.68" cy="65.68" r="38.38" fill="#ccd9e8"/>
          </g>
          <ellipse cx="50.17" cy="38.94" rx="24.41" ry="16.48" transform="translate(-12.22 27.07) rotate(-27.05)" fill="#f4f6f9"/>
          <path d="M30.49,52.88C36,58.43,47.23,59,57.67,53.62c12-6.13,18.38-17.67,14.24-25.78l-.11-.2a37.63,37.63,0,0,0-5.12-.34A38.39,38.39,0,0,0,30.49,52.88Z" fill="#eaeff5"/>
          <ellipse cx="81.27" cy="91.36" rx="5.11" ry="3.45" transform="translate(-32.66 46.95) rotate(-27.05)" fill="#f4f6f9"/>
        </g>
      </g>
    </g>
  </g>
</svg>
