<svg xmlns="http://www.w3.org/2000/svg" width="73.04" height="66.34" viewBox="0 0 73.04 66.34">
  <g id="Layer_2" data-name="Layer 2">
    <g id="Layer_1-2" data-name="Layer 1">
      <g>
        <ellipse cx="36.52" cy="33.17" rx="34.05" ry="30.7" fill="#fff"/>
        <path d="M30.14,39.18V36.75a8.29,8.29,0,0,1,1.26-4.67,12.56,12.56,0,0,1,4.44-3.71,16.35,16.35,0,0,0,3.65-2.6,3.7,3.7,0,0,0,1.12-2.66,2.1,2.1,0,0,0-1.19-1.87,6.07,6.07,0,0,0-3.11-.7q-4.73,0-11,3L20.9,15.88a35.22,35.22,0,0,1,16.29-4q7,0,11,2.77a8.72,8.72,0,0,1,4,7.54,10,10,0,0,1-1.77,5.92,17.51,17.51,0,0,1-5.65,4.73,21.88,21.88,0,0,0-4.12,2.81,3,3,0,0,0-.83,2.1v1.44ZM28.8,49.07a5,5,0,0,1,1.67-4,7.5,7.5,0,0,1,4.94-1.41,7.2,7.2,0,0,1,4.8,1.42,5,5,0,0,1,1.68,4,4.84,4.84,0,0,1-1.74,4,7.32,7.32,0,0,1-4.74,1.41,7.56,7.56,0,0,1-4.86-1.4A4.8,4.8,0,0,1,28.8,49.07Z" fill="#1d819e"/>
        <ellipse cx="36.52" cy="33.17" rx="34.05" ry="30.7" fill="none" stroke="#1d819e" stroke-miterlimit="10" stroke-width="4.94"/>
      </g>
    </g>
  </g>
</svg>
